<svg width="128" height="36" viewBox="0 0 128 36" fill="none" xmlns="http://www.w3.org/2000/svg">
<path d="M36.4093 15.92L27.5769 10.8729C27.4289 10.7884 27.2476 10.7862 27.0977 10.8673L18.3686 15.5857C18.2239 15.6639 18.0499 15.6649 17.9044 15.5883L8.89772 10.848C8.74429 10.7672 8.55972 10.773 8.41161 10.8631L0.407715 15.735V24.9727L8.69414 19.9287C8.84225 19.8386 9.02682 19.8328 9.18026 19.9136L17.9539 24.5313C18.0994 24.6079 18.2735 24.6069 18.4181 24.5287L26.9912 19.8946C27.1411 19.8135 27.3223 19.8157 27.4704 19.9003L36.4093 25.0082V15.92Z" fill="url(#paint0_linear_1112_7103)"/>
<path d="M61.0974 15.9922H58.2977C58.2465 15.63 58.1421 15.3082 57.9845 15.027C57.8268 14.7415 57.6244 14.4986 57.3772 14.2983C57.1301 14.098 56.8445 13.9446 56.5207 13.8381C56.2011 13.7315 55.8538 13.6783 55.4788 13.6783C54.8012 13.6783 54.211 13.8466 53.7082 14.1832C53.2053 14.5156 52.8154 15.0014 52.5384 15.6406C52.2615 16.2756 52.123 17.0469 52.123 17.9545C52.123 18.8878 52.2615 19.6719 52.5384 20.3068C52.8197 20.9418 53.2117 21.4212 53.7146 21.745C54.2174 22.0689 54.7991 22.2308 55.4596 22.2308C55.8303 22.2308 56.1734 22.1818 56.4887 22.0838C56.8083 21.9858 57.0917 21.843 57.3389 21.6555C57.586 21.4638 57.7906 21.2315 57.9525 20.9588C58.1187 20.6861 58.2338 20.375 58.2977 20.0256L61.0974 20.0384C61.0249 20.6392 60.8438 21.2188 60.5541 21.777C60.2686 22.331 59.8829 22.8274 59.3971 23.2663C58.9156 23.701 58.3403 24.0462 57.6713 24.3018C57.0065 24.5533 56.2544 24.679 55.4149 24.679C54.2472 24.679 53.2032 24.4148 52.2828 23.8864C51.3666 23.358 50.6421 22.593 50.1095 21.5916C49.5811 20.5902 49.3169 19.3778 49.3169 17.9545C49.3169 16.527 49.5853 15.3125 50.1222 14.3111C50.6592 13.3097 51.3879 12.5469 52.3083 12.0227C53.2288 11.4943 54.2643 11.2301 55.4149 11.2301C56.1734 11.2301 56.8765 11.3366 57.5242 11.5497C58.1762 11.7628 58.7536 12.0739 59.2565 12.483C59.7593 12.8878 60.1684 13.3842 60.4838 13.9723C60.8034 14.5604 61.0079 15.2337 61.0974 15.9922ZM66.834 18.8239V24.5H64.111V11.4091H66.7573V16.4141H66.8723C67.0939 15.8345 67.4519 15.3807 67.9462 15.0526C68.4405 14.7202 69.0606 14.554 69.8063 14.554C70.4881 14.554 71.0826 14.7031 71.5897 15.0014C72.101 15.2955 72.4973 15.7195 72.7786 16.2734C73.0641 16.8232 73.2047 17.4815 73.2005 18.2486V24.5H70.4775V18.7344C70.4817 18.1293 70.3283 17.6584 70.0172 17.3217C69.7104 16.9851 69.28 16.8168 68.726 16.8168C68.3553 16.8168 68.0272 16.8956 67.7417 17.0533C67.4604 17.2109 67.2388 17.4411 67.0769 17.7436C66.9192 18.0419 66.8383 18.402 66.834 18.8239ZM79.2231 24.6854C78.5967 24.6854 78.0385 24.5767 77.5484 24.3594C77.0583 24.1378 76.6706 23.8118 76.3851 23.3814C76.1038 22.9467 75.9632 22.4055 75.9632 21.7578C75.9632 21.2124 76.0633 20.7543 76.2636 20.3835C76.4639 20.0128 76.7366 19.7145 77.0818 19.4886C77.427 19.2628 77.819 19.0923 78.2579 18.9773C78.7011 18.8622 79.1656 18.7812 79.6514 18.7344C80.2224 18.6747 80.6826 18.6193 81.0321 18.5682C81.3815 18.5128 81.6351 18.4318 81.7927 18.3253C81.9504 18.2187 82.0292 18.0611 82.0292 17.8523V17.8139C82.0292 17.4091 81.9014 17.0959 81.6457 16.8743C81.3943 16.6527 81.0363 16.5419 80.5718 16.5419C80.0818 16.5419 79.6919 16.6506 79.4021 16.8679C79.1123 17.081 78.9206 17.3494 78.8268 17.6733L76.3083 17.4688C76.4362 16.8722 76.6876 16.3565 77.0626 15.9219C77.4376 15.483 77.9213 15.1463 78.5136 14.9119C79.1102 14.6733 79.8005 14.554 80.5846 14.554C81.1301 14.554 81.6521 14.6179 82.1507 14.7457C82.6535 14.8736 83.0988 15.0717 83.4866 15.3402C83.8787 15.6087 84.1876 15.9538 84.4135 16.3757C84.6393 16.7933 84.7522 17.294 84.7522 17.8778V24.5H82.1699V23.1385H82.0931C81.9355 23.4453 81.7245 23.7159 81.4603 23.9503C81.1961 24.1804 80.8787 24.3615 80.5079 24.4936C80.1372 24.6214 79.7089 24.6854 79.2231 24.6854ZM80.003 22.8061C80.4035 22.8061 80.7572 22.7273 81.064 22.5696C81.3708 22.4077 81.6116 22.1903 81.7863 21.9176C81.961 21.6449 82.0484 21.3359 82.0484 20.9908V19.9489C81.9632 20.0043 81.846 20.0554 81.6968 20.1023C81.552 20.1449 81.3879 20.1854 81.2047 20.2237C81.0214 20.2578 80.8382 20.2898 80.6549 20.3196C80.4717 20.3452 80.3055 20.3686 80.1564 20.3899C79.8368 20.4368 79.5576 20.5114 79.319 20.6136C79.0804 20.7159 78.895 20.8544 78.7629 21.0291C78.6308 21.1996 78.5647 21.4126 78.5647 21.6683C78.5647 22.0391 78.699 22.3224 78.9674 22.5185C79.2402 22.7102 79.5853 22.8061 80.003 22.8061ZM93.1671 14.6818V16.7273H87.2545V14.6818H93.1671ZM88.5968 12.3295H91.3198V21.483C91.3198 21.7344 91.3582 21.9304 91.4349 22.071C91.5116 22.2074 91.6181 22.3033 91.7545 22.3587C91.8951 22.4141 92.057 22.4418 92.2403 22.4418C92.3681 22.4418 92.4959 22.4311 92.6238 22.4098C92.7516 22.3842 92.8496 22.3651 92.9178 22.3523L93.3461 24.3786C93.2097 24.4212 93.018 24.4702 92.7708 24.5256C92.5236 24.5852 92.2232 24.6214 91.8695 24.6342C91.2133 24.6598 90.638 24.5724 90.1437 24.3722C89.6536 24.1719 89.2722 23.8608 88.9995 23.4389C88.7268 23.017 88.5925 22.4844 88.5968 21.8409V12.3295ZM96.0209 24.5V14.6818H98.6161V16.4141H98.7311C98.9357 15.8388 99.2766 15.3849 99.7539 15.0526C100.231 14.7202 100.802 14.554 101.467 14.554C102.14 14.554 102.713 14.7223 103.186 15.0589C103.659 15.3913 103.975 15.843 104.132 16.4141H104.235C104.435 15.8516 104.797 15.402 105.321 15.0653C105.85 14.7244 106.474 14.554 107.194 14.554C108.11 14.554 108.854 14.8459 109.425 15.4297C110 16.0092 110.288 16.8317 110.288 17.897V24.5H107.571V18.4339C107.571 17.8885 107.426 17.4794 107.137 17.2067C106.847 16.9339 106.485 16.7976 106.05 16.7976C105.556 16.7976 105.17 16.9553 104.893 17.2706C104.616 17.5817 104.478 17.9929 104.478 18.5043V24.5H101.838V18.3764C101.838 17.8949 101.699 17.5114 101.422 17.2259C101.149 16.9403 100.789 16.7976 100.342 16.7976C100.039 16.7976 99.7666 16.8743 99.5237 17.0277C99.2851 17.1768 99.0955 17.3878 98.9549 17.6605C98.8142 17.929 98.7439 18.2443 98.7439 18.6065V24.5H96.0209ZM117.993 24.6918C116.983 24.6918 116.114 24.4872 115.385 24.0781C114.661 23.6648 114.103 23.081 113.711 22.3267C113.319 21.5682 113.123 20.6712 113.123 19.6357C113.123 18.6257 113.319 17.7393 113.711 16.9766C114.103 16.2138 114.655 15.6193 115.366 15.1932C116.082 14.767 116.922 14.554 117.885 14.554C118.532 14.554 119.135 14.6584 119.694 14.8672C120.256 15.0717 120.746 15.3807 121.164 15.794C121.586 16.2074 121.914 16.7273 122.148 17.3537C122.383 17.9759 122.5 18.7045 122.5 19.5398V20.2876H114.209V18.6001H119.936C119.936 18.2081 119.851 17.8608 119.681 17.5582C119.51 17.2557 119.274 17.0192 118.971 16.8487C118.673 16.674 118.326 16.5866 117.929 16.5866C117.516 16.5866 117.15 16.6825 116.83 16.8743C116.515 17.0618 116.267 17.3153 116.088 17.6349C115.91 17.9503 115.818 18.3018 115.814 18.6896V20.294C115.814 20.7798 115.903 21.1996 116.082 21.5533C116.265 21.907 116.523 22.1797 116.856 22.3714C117.188 22.5632 117.582 22.6591 118.038 22.6591C118.341 22.6591 118.618 22.6165 118.869 22.5312C119.12 22.446 119.336 22.3182 119.515 22.1477C119.694 21.9773 119.83 21.7685 119.924 21.5213L122.442 21.6875C122.314 22.2926 122.052 22.821 121.656 23.2727C121.264 23.7202 120.757 24.0696 120.135 24.321C119.517 24.5682 118.803 24.6918 117.993 24.6918Z" fill="#262729"/>
<defs>
<linearGradient id="paint0_linear_1112_7103" x1="36.4093" y1="17.863" x2="0.407715" y2="17.863" gradientUnits="userSpaceOnUse">
<stop stop-color="#C1E767"/>
<stop offset="0.2" stop-color="#3CF472"/>
<stop offset="0.304235" stop-color="#48E5EC"/>
<stop offset="0.466399" stop-color="#207AF5"/>
<stop offset="0.563129" stop-color="#0568E7"/>
<stop offset="0.702533" stop-color="#186AD0"/>
<stop offset="0.8" stop-color="#DF5F3C"/>
<stop offset="0.95" stop-color="#EE9B55"/>
<stop offset="1" stop-color="#FE9D3E"/>
</linearGradient>
</defs>
</svg>
