<svg width="194" height="36" viewBox="0 0 194 36" fill="none" xmlns="http://www.w3.org/2000/svg">
<path fill-rule="evenodd" clip-rule="evenodd" d="M15.3588 0V5.24344C13.6029 5.66078 11.9831 6.42951 10.5779 7.47124V7.46548C7.25885 9.94884 5.24031 13.9074 5.24031 18.0636C5.24031 22.4222 7.35656 26.2866 10.6176 28.6852C10.6041 28.674 10.5909 28.6629 10.5779 28.6519V18.1979L21.5341 15.0106V5.25748C21.5341 5.25748 21.5341 5.25749 21.5341 5.25748L21.5341 0L24.7675 1.21842C31.5463 3.77287 36.3748 10.3196 36.3748 18C36.3748 25.6804 31.5463 32.2271 24.7675 34.7816L21.5341 36V30.8696C27.3071 29.4695 31.5941 24.2671 31.5941 18.0636C31.5941 18.0392 31.594 18.0149 31.5939 17.9906C31.5909 13.6863 29.5189 9.86269 26.315 7.46548V7.51478C26.315 7.51477 26.315 7.51479 26.315 7.51478L26.315 18.5989L15.3588 21.7862V30.8837L15.3588 36L12.1254 34.7816C5.34654 32.2271 0.518066 25.6804 0.518066 18C0.518066 10.3196 5.34654 3.77287 12.1254 1.21842L15.3588 0Z" fill="#3C3C3C"/>
<path d="M15.359 5.24341C13.6031 5.66073 11.9833 6.42949 10.5781 7.4712V14.3147L15.359 12.9202V5.24341Z" fill="#EE1041"/>
<path d="M21.5343 30.8696V23.8765L26.3152 22.482V28.6125C24.7164 29.7363 23.8083 30.2387 21.5343 30.8696Z" fill="#EE1041"/>
<path d="M43.5002 24.5V11.4091H46.2679V16.8104H51.8865V11.4091H54.6479V24.5H51.8865V19.0923H46.2679V24.5H43.5002ZM66.0958 11.4091H68.8635V19.9105C68.8635 20.8651 68.6356 21.7003 68.1796 22.4162C67.7279 23.1321 67.0951 23.6903 66.2812 24.0909C65.4672 24.4872 64.5191 24.6854 63.4367 24.6854C62.3501 24.6854 61.3998 24.4872 60.5858 24.0909C59.7719 23.6903 59.1391 23.1321 58.6874 22.4162C58.2357 21.7003 58.0099 20.8651 58.0099 19.9105V11.4091H60.7776V19.674C60.7776 20.1726 60.8863 20.6158 61.1036 21.0036C61.3252 21.3913 61.6363 21.696 62.0368 21.9176C62.4374 22.1392 62.904 22.25 63.4367 22.25C63.9736 22.25 64.4403 22.1392 64.8366 21.9176C65.2371 21.696 65.5461 21.3913 65.7634 21.0036C65.985 20.6158 66.0958 20.1726 66.0958 19.674V11.4091ZM74.9885 11.4091V24.5H72.2207V11.4091H74.9885ZM90.3755 17.9545C90.3755 19.3821 90.1049 20.5966 89.5637 21.598C89.0267 22.5994 88.2938 23.3643 87.3648 23.8928C86.4401 24.4169 85.4003 24.679 84.2455 24.679C83.0821 24.679 82.0381 24.4148 81.1134 23.8864C80.1887 23.358 79.4579 22.593 78.9209 21.5916C78.384 20.5902 78.1155 19.3778 78.1155 17.9545C78.1155 16.527 78.384 15.3125 78.9209 14.3111C79.4579 13.3097 80.1887 12.5469 81.1134 12.0227C82.0381 11.4943 83.0821 11.2301 84.2455 11.2301C85.4003 11.2301 86.4401 11.4943 87.3648 12.0227C88.2938 12.5469 89.0267 13.3097 89.5637 14.3111C90.1049 15.3125 90.3755 16.527 90.3755 17.9545ZM87.5694 17.9545C87.5694 17.0298 87.4309 16.25 87.1539 15.6151C86.8811 14.9801 86.4955 14.4986 85.9969 14.1705C85.4983 13.8423 84.9145 13.6783 84.2455 13.6783C83.5765 13.6783 82.9927 13.8423 82.4941 14.1705C81.9955 14.4986 81.6077 14.9801 81.3307 15.6151C81.058 16.25 80.9216 17.0298 80.9216 17.9545C80.9216 18.8793 81.058 19.6591 81.3307 20.294C81.6077 20.929 81.9955 21.4105 82.4941 21.7386C82.9927 22.0668 83.5765 22.2308 84.2455 22.2308C84.9145 22.2308 85.4983 22.0668 85.9969 21.7386C86.4955 21.4105 86.8811 20.929 87.1539 20.294C87.4309 19.6591 87.5694 18.8793 87.5694 17.9545ZM104.455 11.4091V24.5H102.065L96.3693 16.2607H96.2735V24.5H93.5057V11.4091H95.9347L101.585 19.642H101.7V11.4091H104.455ZM107.822 24.5V11.4091H116.643V13.6911H110.59V16.8104H116.189V19.0923H110.59V22.218H116.669V24.5H107.822Z" fill="#3C3C3C"/>
<path d="M136.72 15.9922H133.92C133.869 15.63 133.765 15.3082 133.607 15.027C133.449 14.7415 133.247 14.4986 133 14.2983C132.753 14.098 132.467 13.9446 132.143 13.8381C131.824 13.7315 131.476 13.6783 131.101 13.6783C130.424 13.6783 129.834 13.8466 129.331 14.1832C128.828 14.5156 128.438 15.0014 128.161 15.6406C127.884 16.2756 127.746 17.0469 127.746 17.9545C127.746 18.8878 127.884 19.6719 128.161 20.3068C128.442 20.9418 128.834 21.4212 129.337 21.745C129.84 22.0689 130.422 22.2308 131.082 22.2308C131.453 22.2308 131.796 22.1818 132.111 22.0838C132.431 21.9858 132.714 21.843 132.961 21.6555C133.209 21.4638 133.413 21.2315 133.575 20.9588C133.741 20.6861 133.856 20.375 133.92 20.0256L136.72 20.0384C136.648 20.6392 136.466 21.2188 136.177 21.777C135.891 22.331 135.505 22.8274 135.02 23.2663C134.538 23.701 133.963 24.0462 133.294 24.3018C132.629 24.5533 131.877 24.679 131.037 24.679C129.87 24.679 128.826 24.4148 127.905 23.8864C126.989 23.358 126.265 22.593 125.732 21.5916C125.204 20.5902 124.939 19.3778 124.939 17.9545C124.939 16.527 125.208 15.3125 125.745 14.3111C126.282 13.3097 127.01 12.5469 127.931 12.0227C128.851 11.4943 129.887 11.2301 131.037 11.2301C131.796 11.2301 132.499 11.3366 133.147 11.5497C133.799 11.7628 134.376 12.0739 134.879 12.483C135.382 12.8878 135.791 13.3842 136.106 13.9723C136.426 14.5604 136.63 15.2337 136.72 15.9922ZM137.625 24.5V11.4091H142.789C143.778 11.4091 144.622 11.5859 145.321 11.9396C146.024 12.2891 146.559 12.7855 146.925 13.429C147.296 14.0682 147.481 14.8203 147.481 15.6854C147.481 16.5547 147.294 17.3026 146.919 17.929C146.544 18.5511 146 19.0284 145.289 19.3608C144.581 19.6932 143.725 19.8594 142.719 19.8594H139.261V17.6349H142.272C142.8 17.6349 143.239 17.5625 143.588 17.4176C143.938 17.2727 144.198 17.0554 144.368 16.7656C144.543 16.4759 144.63 16.1158 144.63 15.6854C144.63 15.2507 144.543 14.8842 144.368 14.5859C144.198 14.2876 143.936 14.0618 143.582 13.9084C143.233 13.7507 142.792 13.6719 142.259 13.6719H140.392V24.5H137.625ZM144.694 18.5426L147.948 24.5H144.892L141.709 18.5426H144.694ZM147.045 11.4091H150.145L153.13 17.0469H153.258L156.243 11.4091H159.344L154.569 19.8722V24.5H151.82V19.8722L147.045 11.4091ZM159.775 24.5V11.4091H164.94C165.933 11.4091 166.779 11.5987 167.478 11.978C168.177 12.353 168.709 12.875 169.076 13.544C169.446 14.2088 169.632 14.9759 169.632 15.8452C169.632 16.7145 169.444 17.4815 169.069 18.1463C168.694 18.8111 168.151 19.3288 167.439 19.6996C166.732 20.0703 165.875 20.2557 164.87 20.2557H161.578V18.0376H164.422C164.955 18.0376 165.394 17.946 165.739 17.7628C166.088 17.5753 166.348 17.3175 166.519 16.9893C166.694 16.657 166.781 16.2756 166.781 15.8452C166.781 15.4105 166.694 15.0312 166.519 14.7074C166.348 14.3793 166.088 14.1257 165.739 13.9467C165.39 13.7635 164.946 13.6719 164.409 13.6719H162.543V24.5H159.775ZM169.851 13.6911V11.4091H180.602V13.6911H176.595V24.5H173.859V13.6911H169.851ZM192.725 17.9545C192.725 19.3821 192.455 20.5966 191.913 21.598C191.376 22.5994 190.643 23.3643 189.715 23.8928C188.79 24.4169 187.75 24.679 186.595 24.679C185.432 24.679 184.388 24.4148 183.463 23.8864C182.538 23.358 181.808 22.593 181.271 21.5916C180.734 20.5902 180.465 19.3778 180.465 17.9545C180.465 16.527 180.734 15.3125 181.271 14.3111C181.808 13.3097 182.538 12.5469 183.463 12.0227C184.388 11.4943 185.432 11.2301 186.595 11.2301C187.75 11.2301 188.79 11.4943 189.715 12.0227C190.643 12.5469 191.376 13.3097 191.913 14.3111C192.455 15.3125 192.725 16.527 192.725 17.9545ZM189.919 17.9545C189.919 17.0298 189.781 16.25 189.504 15.6151C189.231 14.9801 188.845 14.4986 188.347 14.1705C187.848 13.8423 187.264 13.6783 186.595 13.6783C185.926 13.6783 185.342 13.8423 184.844 14.1705C184.345 14.4986 183.957 14.9801 183.68 15.6151C183.408 16.25 183.271 17.0298 183.271 17.9545C183.271 18.8793 183.408 19.6591 183.68 20.294C183.957 20.929 184.345 21.4105 184.844 21.7386C185.342 22.0668 185.926 22.2308 186.595 22.2308C187.264 22.2308 187.848 22.0668 188.347 21.7386C188.845 21.4105 189.231 20.929 189.504 20.294C189.781 19.6591 189.919 18.8793 189.919 17.9545Z" fill="#EE1041"/>
</svg>
