<svg width="208" height="32" viewBox="0 0 208 32" fill="none" xmlns="http://www.w3.org/2000/svg">
<path d="M28.1443 1.90585C29.2616 0.742071 30.7886 0.0597273 32.401 0.0037381C34.0134 -0.0522511 35.5841 0.522526 36.7795 1.60599C37.9749 2.68946 38.7008 4.19625 38.8031 5.80634C38.9053 7.41644 38.3759 9.00298 37.3273 10.229C35.3477 6.45533 32.0938 3.5061 28.1443 1.90585ZM10.9477 1.90585C9.83029 0.742071 8.30326 0.0597273 6.6909 0.0037381C5.07853 -0.0522511 3.50785 0.522526 2.31246 1.60599C1.11706 2.68946 0.391134 4.19625 0.288849 5.80634C0.186564 7.41644 0.715983 9.00298 1.76466 10.229C3.75276 6.44925 7.0197 3.49925 10.982 1.90585H10.9477ZM37.5594 16.1102C37.1811 7.95046 29.262 1.42434 19.503 1.42434C16.68 1.41569 13.8852 1.98634 11.2916 3.10101C13.7134 2.23296 16.2935 1.89581 18.8571 2.1124C21.4206 2.329 23.9076 3.09428 26.1495 4.35636C28.3361 5.51488 30.2801 7.08233 31.8759 8.97366C30.2467 8.46846 28.4997 8.49049 26.8837 9.03661C25.2678 9.58273 23.8655 10.6251 22.8769 12.015C21.8882 13.4049 21.3635 15.0715 21.3777 16.7772C21.3919 18.4828 21.9442 20.1405 22.9558 21.5138C23.9675 22.8871 25.3869 23.906 27.0117 24.4251C28.6364 24.9443 30.3837 24.9373 32.0042 24.4051C33.6248 23.8729 35.0359 22.8426 36.0366 21.4613C37.0372 20.0799 37.5761 18.4178 37.5766 16.7121C37.5594 16.5144 37.5594 16.308 37.5594 16.1102ZM12.9081 29.0679C10.5584 27.8219 8.49164 26.1035 6.83766 24.0207C7.71394 24.3397 8.63937 24.5027 9.57192 24.5022C11.1724 24.4971 12.7355 24.018 14.0639 23.1252C15.3923 22.2325 16.4264 20.9663 17.0357 19.4863C17.6451 18.0064 17.8023 16.3791 17.4876 14.8098C17.1728 13.2406 16.4002 11.7998 15.2673 10.6693C14.1344 9.53877 12.692 8.76924 11.1221 8.45783C9.55219 8.14642 7.92522 8.30709 6.44657 8.91956C4.96791 9.53203 3.70385 10.5689 2.81396 11.8991C1.92406 13.2294 1.44823 14.7935 1.44652 16.394C1.44652 16.4886 1.44652 16.5746 1.44652 16.6605V16.7121C1.44652 25.1557 9.52893 31.9999 19.503 31.9999C22.3287 32.0078 25.1261 31.4372 27.7229 30.3232C25.3071 31.1838 22.7349 31.5169 20.1795 31.3004C17.6241 31.0839 15.1447 30.3226 12.9081 29.0679Z" fill="black"/>
<path d="M51.8668 9.79903C51.8798 10.0443 51.837 10.2893 51.7417 10.5157C51.6464 10.7421 51.501 10.9439 51.3165 11.106C50.9894 11.3862 50.569 11.5335 50.1385 11.5187H49.4077C48.909 11.5187 48.6596 11.2321 48.6596 10.6589V7.07337C48.6596 6.86701 48.5307 6.76383 48.2727 6.76383C48.2157 6.75481 48.1577 6.75481 48.1007 6.76383H47.9288C47.8686 6.76383 47.8256 6.72083 47.7912 6.64345L47.4473 5.92979L49.5023 4.21013H49.6828L50.6372 4.69163C50.6969 4.718 50.7612 4.7326 50.8264 4.73463C50.8949 4.74291 50.9642 4.74291 51.0328 4.73463L51.1617 4.94099L50.4567 5.92979C50.1921 5.73496 49.8737 5.62683 49.5453 5.62025C49.4103 5.61891 49.277 5.64934 49.156 5.70909C49.035 5.76884 48.9297 5.85623 48.8488 5.96418V6.02437C48.9708 6.00116 49.0944 5.98679 49.2185 5.98138C49.4358 5.97938 49.6496 6.0358 49.8376 6.14475C49.9388 6.19047 50.0249 6.26409 50.0858 6.35698C50.1468 6.44986 50.1799 6.55818 50.1815 6.66925V10.3235C50.1815 10.5471 50.2761 10.6503 50.4481 10.6503C50.62 10.6503 50.7576 10.5127 50.7576 10.2375C50.7289 10.0802 50.647 9.93747 50.5255 9.83342C50.3886 9.70906 50.3054 9.53643 50.2933 9.35192C50.2789 9.26018 50.2862 9.16635 50.3147 9.07797C50.3432 8.98958 50.392 8.90912 50.4572 8.84304C50.5225 8.77697 50.6023 8.72713 50.6903 8.69753C50.7783 8.66794 50.8721 8.65941 50.964 8.67265C51.5744 8.65545 51.8668 9.04238 51.8668 9.79903ZM60.2243 4.58845C60.2427 5.18107 60.0609 5.76259 59.7085 6.23933C59.525 6.4762 59.2867 6.66491 59.0141 6.78923C58.7414 6.91356 58.4427 6.96975 58.1436 6.95299C57.5713 6.96775 57.0034 6.85005 56.4841 6.60906L54.4635 5.62025L53.6037 6.10176V6.24793L54.5667 7.02178V10.4181L56.4755 9.60127L58.3843 10.4181V8.35451C58.3843 8.09656 58.2983 7.96759 58.1178 7.96759C57.9372 7.96759 57.8082 8.06217 57.8082 8.25993C57.8082 8.32012 57.8856 8.4147 58.0404 8.53508C58.1107 8.58358 58.169 8.64754 58.2107 8.72207C58.2524 8.7966 58.2765 8.8797 58.2811 8.96499C58.2811 9.33472 58.049 9.52388 57.6019 9.52388C57.0172 9.52388 56.742 9.20575 56.742 8.58667C56.742 7.67525 57.3267 7.21954 58.4617 7.21954H59.1926C59.6913 7.21954 59.9406 7.50328 59.9406 8.07937V11.5187H57.9716L56.4755 10.8824L54.9708 11.5273H53.0362V7.33991L52.1763 6.62625V5.68904L54.8676 4.26172H55.3061L57.086 5.21613C57.5072 5.46374 57.9822 5.60537 58.4703 5.62885C59.055 5.62885 59.3301 5.43109 59.3301 5.04416C59.3301 4.81201 59.2183 4.69163 59.0034 4.69163H58.8744H58.7454C58.6707 4.70038 58.5949 4.69178 58.524 4.66652C58.4531 4.64125 58.389 4.59999 58.3366 4.54595C58.2842 4.4919 58.245 4.42651 58.2219 4.35485C58.1989 4.2832 58.1927 4.20719 58.2037 4.13274C58.1982 4.02355 58.2168 3.91447 58.2585 3.81337C58.3001 3.71227 58.3636 3.62166 58.4445 3.54806C58.6022 3.40473 58.8075 3.32506 59.0206 3.3245C59.1815 3.31867 59.3418 3.34795 59.4903 3.41031C59.6388 3.47267 59.7719 3.56662 59.8804 3.68563C60.1101 3.92916 60.2338 4.25384 60.2243 4.58845ZM70.3704 10.3751C70.3576 10.5631 70.2919 10.7436 70.1808 10.8958C70.0697 11.0479 69.9178 11.1655 69.7427 11.2349C69.3792 11.4237 68.9742 11.5183 68.5647 11.5101H67.0686C66.747 11.4928 66.4305 11.4231 66.1314 11.3037L64.4117 10.6589V11.7508H62.8468V8.74144L63.122 8.53508H64.128L64.4117 8.74144V8.99939C64.4112 9.06686 64.4316 9.13284 64.4701 9.18827C64.5086 9.24369 64.5633 9.28584 64.6267 9.30892L66.1314 9.9194C66.5186 10.0836 66.9322 10.1768 67.3523 10.1946H68.2982C68.6335 10.1946 68.8055 10.0914 68.8055 9.89361V9.73884C68.8055 9.61846 68.5733 9.46369 68.1176 9.29173L64.6783 8.12236C64.327 8.01166 63.9849 7.87366 63.6551 7.70964C63.4243 7.60478 63.2277 7.43707 63.0878 7.22571C62.9479 7.01434 62.8704 6.76786 62.864 6.51448V5.82661C62.8652 5.61378 62.9233 5.40513 63.0321 5.22223C63.1409 5.03932 63.2966 4.8888 63.4831 4.78622C63.8602 4.56353 64.292 4.45039 64.7299 4.45948H68.5991C69.0123 4.46191 69.4168 4.57792 69.7685 4.79481C69.9476 4.88392 70.0996 5.01949 70.2085 5.18737C70.3174 5.35525 70.3792 5.54929 70.3875 5.74923V7.29692C70.3885 7.37508 70.3738 7.45263 70.3442 7.525C70.3147 7.59736 70.271 7.66307 70.2156 7.71824C70.1018 7.83294 69.9472 7.89787 69.7857 7.8988H68.9946C67.9542 7.8988 67.4383 7.48608 67.4383 6.67784C67.4383 6.24793 67.6447 6.03297 68.0574 6.03297C68.4615 6.03297 68.6679 6.21353 68.6679 6.57466C68.672 6.64724 68.6524 6.71918 68.6121 6.77966C68.5718 6.84014 68.5129 6.88588 68.4443 6.91C68.2982 6.97878 68.2294 7.03037 68.2294 7.08196C68.2294 7.13355 68.3412 7.34851 68.5561 7.34851C68.7711 7.34851 68.8227 7.27113 68.8227 7.11636V6.20494C68.8227 5.92119 68.6421 5.78362 68.281 5.78362H65.0738C64.6181 5.78362 64.3859 5.94699 64.3859 6.26512V6.41989C64.3872 6.55385 64.4325 6.68366 64.5149 6.78932C64.5972 6.89498 64.7121 6.97062 64.8416 7.00458L68.4013 8.20834C68.8335 8.35197 69.2533 8.53025 69.6567 8.74144C69.8475 8.8202 70.0128 8.95026 70.1342 9.11721C70.2556 9.28415 70.3284 9.48146 70.3446 9.68725L70.3704 10.3751ZM84.8499 11.5273H83.285V6.44569L82.5198 5.904L79.8887 8.80162V11.5273H77.9713L76.5525 10.3751L75.1596 11.5359H73.182V8.16535H74.7469V10.5127L76.5439 9.04238L78.3496 10.5127V8.51788L82.3564 4.26172H82.8637L84.8499 5.57726V11.5273ZM79.3556 5.3881C79.3797 5.71871 79.3288 6.0505 79.2067 6.35869C79.0846 6.66688 78.8945 6.94351 78.6505 7.16795C78.0096 7.61106 77.255 7.86115 76.4763 7.88858C75.6976 7.91601 74.9273 7.71963 74.2568 7.32272C74.0293 7.16386 73.8465 6.9491 73.726 6.69911C73.6055 6.44913 73.5514 6.17234 73.5689 5.8954C73.5633 5.68359 73.6025 5.47298 73.6839 5.27735C73.7653 5.08173 73.8871 4.9055 74.0413 4.7602C74.1955 4.61491 74.3787 4.50382 74.5788 4.43422C74.7789 4.36462 74.9915 4.33806 75.2026 4.3563C75.4112 4.33437 75.622 4.35757 75.8208 4.42433C76.0196 4.49109 76.2017 4.59985 76.3548 4.74322C76.4541 4.82591 76.5335 4.92991 76.5871 5.04751C76.6407 5.16512 76.6671 5.29328 76.6643 5.42249V6.01577H75.5981V5.72343C75.5981 5.49988 75.4691 5.3795 75.2026 5.3795C74.936 5.3795 74.8329 5.50847 74.8329 5.77502C74.8301 5.88049 74.8568 5.98463 74.91 6.07576C74.9631 6.16689 75.0406 6.2414 75.1338 6.29092C75.4893 6.48448 75.89 6.57948 76.2946 6.56606C77.6015 6.56606 78.2636 6.28232 78.2636 5.70623C78.271 5.6313 78.2492 5.55639 78.2028 5.49713C78.1563 5.43786 78.0888 5.39881 78.0142 5.3881H77.9713H77.8423H77.7133C77.6385 5.39684 77.5628 5.38824 77.4919 5.36298C77.421 5.33771 77.3568 5.29646 77.3045 5.24241C77.2521 5.18836 77.2128 5.12297 77.1898 5.05132C77.1668 4.97966 77.1605 4.90366 77.1716 4.82921C77.1718 4.70997 77.2037 4.59295 77.2642 4.49018C77.3247 4.38741 77.4114 4.30261 77.5155 4.24452C77.7055 4.09892 77.9383 4.02031 78.1776 4.02097C78.3395 4.0201 78.4997 4.05334 78.6478 4.11852C78.796 4.18371 78.9287 4.27937 79.0374 4.39929C79.1573 4.53317 79.2494 4.6895 79.3085 4.85923C79.3675 5.02896 79.3923 5.20872 79.3814 5.3881H79.3556ZM99.1833 10.2117C99.1916 10.4189 99.1421 10.6244 99.0404 10.8051C98.9387 10.9858 98.7887 11.1346 98.6072 11.2349C98.2268 11.4382 97.8001 11.5389 97.369 11.5273H93.5084C93.0966 11.5316 92.6897 11.4373 92.3218 11.2521C92.1518 11.1748 92.0064 11.0519 91.9017 10.8972C91.797 10.7424 91.7371 10.5618 91.7285 10.3751V9.68725C91.7285 9.04238 92.382 8.56087 93.6804 8.25993L97.2315 7.27972C97.3649 7.25309 97.4843 7.1794 97.568 7.07207C97.6516 6.96475 97.6939 6.83094 97.6872 6.69504V6.26512C97.6872 5.93839 97.455 5.78362 96.9993 5.78362H93.7921C93.431 5.78362 93.2504 5.92119 93.2504 6.20494V7.11636C93.2504 7.27113 93.3364 7.34851 93.517 7.34851C93.6976 7.34851 93.8437 7.26253 93.8437 7.08196C93.8437 6.9014 93.7835 6.97018 93.6546 6.91C93.5827 6.88799 93.5197 6.84359 93.4748 6.78326C93.43 6.72293 93.4056 6.64984 93.4052 6.57466C93.4052 6.21353 93.6116 6.03297 94.0157 6.03297C94.4198 6.03297 94.6348 6.24793 94.6348 6.67784C94.6348 7.48608 94.1189 7.8902 93.0871 7.8902H92.2874C92.209 7.89324 92.1308 7.87947 92.0582 7.84981C91.9855 7.82015 91.92 7.77529 91.8661 7.71824C91.8079 7.66476 91.7618 7.59957 91.7307 7.52694C91.6995 7.45432 91.6842 7.37592 91.6855 7.29692V5.74923C91.6939 5.54929 91.7557 5.35525 91.8646 5.18737C91.9735 5.01949 92.1255 4.88392 92.3046 4.79481C92.6563 4.57792 93.0608 4.46191 93.474 4.45948H97.3432C97.7811 4.45039 98.2129 4.56353 98.59 4.78622C98.7777 4.88737 98.9344 5.03757 99.0434 5.2208C99.1524 5.40402 99.2097 5.6134 99.2091 5.82661V6.78962C99.2091 7.53481 98.6072 8.0679 97.4034 8.38891L93.9641 9.33472C93.4998 9.4551 93.2676 9.58407 93.2676 9.73884V9.89361C93.2676 10.0914 93.4396 10.1946 93.7749 10.1946H96.8875C97.3776 10.1946 97.6184 10.0054 97.6184 9.62706V9.14556L97.9107 8.97359H98.9081L99.1833 9.14556V10.2117ZM110.834 4.97538L110.138 5.92979C109.873 5.73496 109.555 5.62683 109.226 5.62025C109.092 5.62273 108.96 5.65485 108.839 5.71431C108.719 5.77377 108.613 5.85909 108.53 5.96418V6.02437C108.652 6.00116 108.775 5.98679 108.899 5.98138C109.117 5.9828 109.331 6.03274 109.527 6.12755C109.628 6.17411 109.713 6.24793 109.774 6.34064C109.835 6.43334 109.868 6.54122 109.871 6.65205V10.1516C109.865 10.3525 109.81 10.5489 109.709 10.723C109.608 10.8972 109.466 11.0435 109.295 11.149C108.978 11.3903 108.592 11.523 108.194 11.5273H103.895C103.545 11.5211 103.203 11.4201 102.906 11.2349C102.738 11.1458 102.596 11.0138 102.495 10.8523C102.394 10.6908 102.337 10.5054 102.33 10.3149V7.07337C102.33 6.86701 102.201 6.76383 101.943 6.76383C101.886 6.75481 101.828 6.75481 101.771 6.76383H101.599C101.539 6.76383 101.496 6.72083 101.462 6.64345L101.118 5.92979L103.173 4.21013H103.353L104.308 4.69163C104.368 4.718 104.432 4.7326 104.497 4.73463C104.566 4.74291 104.635 4.74291 104.703 4.73463L104.832 4.94099L104.136 5.8954C103.871 5.70057 103.553 5.59244 103.224 5.58586C103.09 5.58451 102.956 5.61495 102.835 5.6747C102.714 5.73444 102.609 5.82183 102.528 5.92979V5.98998C102.65 5.96676 102.774 5.9524 102.898 5.94699C103.115 5.94498 103.329 6.00141 103.517 6.11036C103.618 6.15608 103.704 6.2297 103.765 6.32258C103.826 6.41547 103.859 6.52379 103.861 6.63485V7.63225H108.366V7.03897C108.366 6.83261 108.229 6.72943 107.971 6.72943C107.914 6.72042 107.856 6.72042 107.799 6.72943H107.627C107.567 6.72943 107.524 6.68644 107.489 6.60906L107.145 5.8954L109.2 4.17574H109.381L110.344 4.65724C110.4 4.68455 110.462 4.69922 110.524 4.70023C110.593 4.70852 110.662 4.70852 110.731 4.70023L110.834 4.97538ZM108.34 9.4121V8.86181H103.835V9.39491C103.834 9.51379 103.862 9.63112 103.918 9.73623C103.973 9.84134 104.054 9.9309 104.153 9.99679C104.345 10.135 104.579 10.2046 104.815 10.1946H107.592C108.117 10.1946 108.366 9.9366 108.366 9.4121H108.34ZM115.838 9.79903C115.849 10.0457 115.804 10.2916 115.705 10.518C115.607 10.7445 115.458 10.9455 115.271 11.106C114.944 11.3862 114.523 11.5335 114.093 11.5187H113.362C112.863 11.5187 112.614 11.2321 112.614 10.6589V7.07337C112.614 6.86701 112.485 6.76383 112.218 6.76383H112.046H111.874C111.823 6.76383 111.78 6.72083 111.737 6.64345L111.401 5.92979L113.456 4.21013H113.637L114.591 4.69163C114.651 4.71912 114.715 4.73377 114.781 4.73463C114.849 4.74291 114.918 4.74291 114.987 4.73463L115.116 4.94099L114.419 5.8954C114.155 5.70057 113.837 5.59244 113.508 5.58586C113.373 5.58451 113.24 5.61495 113.119 5.6747C112.998 5.73444 112.893 5.82183 112.812 5.92979V5.98998C112.931 5.96717 113.051 5.9528 113.173 5.94699C113.393 5.94386 113.61 6.00031 113.8 6.11036C113.902 6.15608 113.988 6.2297 114.049 6.32258C114.11 6.41547 114.143 6.52379 114.144 6.63485V10.2891C114.144 10.5127 114.23 10.6159 114.411 10.6159C114.591 10.6159 114.72 10.4783 114.72 10.2031C114.689 10.0469 114.607 9.90519 114.488 9.79903C114.419 9.73864 114.363 9.66484 114.323 9.58207C114.283 9.49931 114.26 9.40931 114.256 9.31752C114.242 9.22579 114.249 9.13196 114.277 9.04358C114.306 8.95519 114.355 8.87472 114.42 8.80865C114.485 8.74257 114.565 8.69273 114.653 8.66314C114.741 8.63354 114.835 8.62502 114.927 8.63826C115.572 8.65545 115.864 9.04238 115.864 9.79903H115.838ZM126.122 4.97538L125.425 5.92979C125.161 5.73496 124.842 5.62683 124.514 5.62025C124.379 5.61891 124.246 5.64934 124.125 5.70909C124.004 5.76884 123.898 5.85623 123.817 5.96418V6.02437C123.939 6.00116 124.063 5.98679 124.187 5.98138C124.402 5.9817 124.614 6.03173 124.806 6.12755C124.908 6.17241 124.995 6.24581 125.056 6.33889C125.117 6.43197 125.15 6.54074 125.15 6.65205V10.1516C125.145 10.3517 125.091 10.5476 124.992 10.7217C124.893 10.8957 124.752 11.0425 124.583 11.149C124.265 11.3876 123.88 11.52 123.482 11.5273H119.183C118.798 11.5233 118.422 11.41 118.1 11.2006C117.933 11.1096 117.793 10.977 117.694 10.8157C117.594 10.6544 117.539 10.4699 117.532 10.2805V7.07337C117.532 6.86701 117.403 6.76383 117.137 6.76383H116.965H116.793C116.741 6.76383 116.698 6.72083 116.655 6.64345L116.32 5.92979L118.375 4.21013H118.555L119.51 4.69163C119.569 4.71912 119.633 4.73377 119.699 4.73463C119.767 4.74291 119.837 4.74291 119.905 4.73463L120.026 4.94099L119.338 5.8954C119.071 5.69939 118.749 5.59123 118.418 5.58586C118.284 5.58586 118.153 5.61694 118.033 5.67663C117.914 5.73633 117.81 5.823 117.73 5.92979V5.98998C117.852 5.96767 117.976 5.95331 118.1 5.94699C118.32 5.94386 118.537 6.00031 118.727 6.11036C118.827 6.15772 118.912 6.23173 118.973 6.32426C119.034 6.41679 119.068 6.52426 119.071 6.63485V7.63225H123.542V7.03897C123.542 6.83261 123.413 6.72943 123.147 6.72943H122.975C122.918 6.73844 122.86 6.73844 122.803 6.72943C122.751 6.72943 122.708 6.68644 122.665 6.60906L122.33 5.8954L124.385 4.17574H124.565L125.52 4.65724C125.579 4.68473 125.644 4.69938 125.709 4.70023C125.778 4.70852 125.847 4.70852 125.915 4.70023L126.122 4.97538ZM123.542 9.4121V8.86181H119.045V9.39491C119.042 9.51314 119.069 9.63024 119.123 9.73542C119.177 9.8406 119.257 9.93048 119.355 9.99679C119.551 10.1339 119.786 10.2033 120.026 10.1946H122.803C123.327 10.1946 123.542 9.9366 123.542 9.4121ZM125.735 1.8198C125.733 2.07949 125.693 2.33748 125.614 2.58505L125.417 3.22132V3.59965H119.338C119.358 2.98716 119.596 2.40193 120.008 1.94877C120.225 1.74079 120.481 1.57873 120.762 1.47235C121.043 1.36596 121.342 1.31744 121.642 1.3297C122.32 1.34525 122.986 1.51896 123.585 1.837C123.706 1.89718 124.17 2.17233 124.961 2.69683C125.015 2.57175 125.044 2.43745 125.047 2.3013C125.038 2.19053 124.989 2.0868 124.909 2.00896C124.838 1.93357 124.793 1.83705 124.78 1.73382C124.778 1.67913 124.791 1.62485 124.816 1.57651C124.842 1.52818 124.88 1.48752 124.927 1.45867C125.003 1.39857 125.096 1.36531 125.193 1.36409C125.554 1.36409 125.735 1.51886 125.735 1.837V1.8198ZM124.015 2.91178C123.345 2.44985 122.558 2.18747 121.745 2.15513C120.885 2.15513 120.464 2.40448 120.335 2.91178H124.015ZM138.529 4.97538L137.841 5.92979C137.574 5.73379 137.253 5.62562 136.921 5.62025C136.788 5.62025 136.656 5.65133 136.537 5.71103C136.417 5.77072 136.313 5.8574 136.233 5.96418V6.02437C136.356 6.00206 136.479 5.9877 136.603 5.98138C136.821 5.98068 137.036 6.03073 137.231 6.12755C137.333 6.17241 137.419 6.24581 137.48 6.33889C137.541 6.43197 137.574 6.54074 137.575 6.65205V10.1516C137.571 10.3519 137.517 10.5481 137.417 10.7222C137.318 10.8964 137.177 11.0431 137.007 11.149C136.689 11.3876 136.304 11.52 135.907 11.5273H133.637C133.214 11.5292 132.8 11.4034 132.45 11.1662C132.267 11.0625 132.114 10.9127 132.007 10.7317C131.9 10.5506 131.842 10.3447 131.84 10.1344V8.95639C131.84 8.44909 131.573 8.19974 131.04 8.19974H130.077C129.544 8.19974 129.269 8.45769 129.269 8.97359V10.3235C129.269 10.5471 129.363 10.6589 129.535 10.6589C129.707 10.6589 129.845 10.5127 129.845 10.2375C129.816 10.0802 129.734 9.93747 129.613 9.83342C129.476 9.70906 129.393 9.53643 129.381 9.35192C129.368 9.2597 129.376 9.16577 129.406 9.07749C129.436 8.98921 129.485 8.909 129.551 8.84316C129.617 8.77733 129.697 8.72767 129.785 8.69808C129.874 8.66849 129.968 8.65979 130.06 8.67265C130.636 8.67265 130.92 9.05098 130.92 9.79903C130.933 10.0472 130.888 10.2949 130.79 10.5231C130.691 10.7513 130.541 10.9537 130.352 11.1146C130.022 11.3898 129.604 11.5364 129.174 11.5273H128.443C127.953 11.5273 127.704 11.2435 127.704 10.6675V8.28573C127.702 8.12459 127.735 7.96493 127.798 7.8169C127.862 7.66886 127.956 7.5357 128.074 7.4259C128.317 7.19942 128.612 7.03691 128.933 6.95299C128.933 6.9014 128.882 6.84981 128.796 6.78962C128.721 6.73326 128.631 6.70034 128.538 6.69504H128.366C128.309 6.70339 128.251 6.70339 128.194 6.69504C128.142 6.69504 128.099 6.69504 128.056 6.58326L127.721 5.92979L129.767 4.21013H129.948L130.911 4.69163C130.97 4.71991 131.035 4.7346 131.1 4.73463C131.169 4.74291 131.238 4.74291 131.307 4.73463L131.427 4.94099L130.73 5.8954C130.466 5.69955 130.148 5.5913 129.819 5.58586C129.685 5.58834 129.553 5.62046 129.432 5.67992C129.312 5.73937 129.206 5.8247 129.123 5.92979V5.98998C129.234 5.98145 129.346 5.98145 129.458 5.98998C129.602 6.00201 129.741 6.04805 129.863 6.12428C129.986 6.20052 130.089 6.30479 130.163 6.42849C130.251 6.5604 130.37 6.66912 130.509 6.74544C130.648 6.82177 130.804 6.86347 130.963 6.86701H131.685C132.108 6.86505 132.521 6.99092 132.871 7.22813C133.054 7.33566 133.206 7.48894 133.311 7.67287C133.417 7.85681 133.473 8.06506 133.473 8.27713V9.40351C133.46 9.51171 133.472 9.62151 133.508 9.72429C133.545 9.82707 133.604 9.92002 133.683 9.99585C133.761 10.0717 133.856 10.1283 133.96 10.1613C134.064 10.1943 134.174 10.2027 134.282 10.186H135.339C135.829 10.186 136.079 9.928 136.079 9.40351V7.07337C136.079 6.86701 135.95 6.76383 135.683 6.76383H135.511H135.339C135.288 6.76383 135.245 6.72083 135.202 6.64345L134.866 5.92979L136.921 4.21013H137.102L138.056 4.69163C138.116 4.71912 138.18 4.73377 138.245 4.73463C138.314 4.74291 138.383 4.74291 138.452 4.73463L138.529 4.97538ZM150.747 4.97538L150.051 5.92979C149.786 5.73496 149.468 5.62683 149.139 5.62025C149.005 5.62273 148.873 5.65485 148.753 5.71431C148.632 5.77377 148.527 5.85909 148.443 5.96418V6.02437C148.565 6.00116 148.689 5.98679 148.813 5.98138C149.03 5.9828 149.245 6.03274 149.44 6.12755C149.541 6.17411 149.627 6.24793 149.687 6.34064C149.748 6.43334 149.782 6.54122 149.784 6.65205V10.1516C149.793 10.3412 149.757 10.5303 149.68 10.7035C149.602 10.8767 149.485 11.0293 149.337 11.149C149.021 11.3903 148.635 11.523 148.237 11.5273H145.967C145.544 11.5292 145.13 11.4034 144.78 11.1662C144.597 11.0634 144.444 10.9136 144.339 10.7322C144.233 10.5508 144.177 10.3444 144.178 10.1344V6.57466C144.178 6.07596 143.912 5.82661 143.37 5.82661H142.321C141.779 5.82661 141.513 6.08456 141.513 6.59186V10.3235C141.513 10.5471 141.599 10.6589 141.779 10.6589C141.96 10.6589 142.089 10.5127 142.089 10.2375C142.057 10.0813 141.976 9.93958 141.857 9.83342C141.717 9.70994 141.631 9.53745 141.616 9.35192C141.603 9.2597 141.612 9.16577 141.641 9.07749C141.671 8.98921 141.721 8.909 141.786 8.84316C141.852 8.77733 141.932 8.72767 142.021 8.69808C142.109 8.66849 142.203 8.65979 142.295 8.67265C142.88 8.67265 143.155 9.05098 143.155 9.79903C143.166 10.0469 143.121 10.2941 143.022 10.5219C142.924 10.7498 142.775 10.9524 142.588 11.1146C142.257 11.3891 141.839 11.5356 141.41 11.5273H140.679C140.18 11.5273 139.931 11.2435 139.931 10.6675V5.904C139.933 5.69455 139.989 5.48925 140.093 5.30729C140.197 5.12533 140.345 4.97268 140.524 4.8636C140.869 4.62253 141.281 4.49346 141.702 4.49387H143.937C144.359 4.49346 144.77 4.62253 145.115 4.8636C145.299 4.96865 145.452 5.11996 145.559 5.30248C145.666 5.485 145.724 5.69238 145.726 5.904V9.4121C145.726 9.9366 145.992 10.1946 146.534 10.1946H147.618C148.116 10.1946 148.366 9.9366 148.366 9.4121V7.07337C148.366 6.86701 148.228 6.76383 147.97 6.76383C147.913 6.75481 147.855 6.75481 147.798 6.76383H147.626C147.575 6.76383 147.523 6.72083 147.489 6.64345L147.153 5.92979L149.2 4.21013H149.337L150.3 4.69163C150.357 4.71894 150.418 4.73361 150.481 4.73463C150.549 4.74291 150.619 4.74291 150.687 4.73463L150.747 4.97538ZM159.191 9.79903C159.2 10.0463 159.153 10.2924 159.053 10.5188C158.953 10.7452 158.803 10.946 158.615 11.106C158.29 11.3842 157.873 11.5313 157.445 11.5187H156.706C156.216 11.5187 155.966 11.2435 155.966 10.6589V7.07337C155.966 6.86701 155.838 6.76383 155.571 6.76383C155.514 6.75547 155.456 6.75547 155.399 6.76383H155.227C155.175 6.76383 155.124 6.72083 155.089 6.64345L154.754 5.92979L156.801 4.21013H157.076L158.039 4.69163C158.098 4.71912 158.162 4.73377 158.228 4.73463C158.296 4.74291 158.366 4.74291 158.434 4.73463L158.555 4.94099L157.858 5.8954C157.594 5.69955 157.275 5.5913 156.947 5.58586C156.813 5.5895 156.681 5.62214 156.561 5.68151C156.441 5.74088 156.335 5.82558 156.25 5.92979V5.98998C156.372 5.96719 156.496 5.95282 156.62 5.94699C156.84 5.94386 157.057 6.00031 157.248 6.11036C157.348 6.15772 157.433 6.23173 157.493 6.32426C157.554 6.41679 157.588 6.52426 157.592 6.63485V10.2891C157.592 10.5127 157.678 10.6159 157.85 10.6159C158.021 10.6159 158.168 10.4783 158.168 10.2031C158.132 10.0484 158.051 9.90769 157.935 9.79903C157.796 9.67555 157.71 9.50305 157.695 9.31752C157.682 9.22531 157.691 9.13137 157.72 9.04309C157.75 8.95482 157.799 8.87461 157.865 8.80877C157.931 8.74294 158.011 8.69327 158.1 8.66368C158.188 8.6341 158.282 8.62539 158.374 8.63826C158.967 8.65545 159.26 9.04238 159.26 9.79903H159.191ZM159.191 2.21532C159.216 2.47033 159.16 2.72674 159.032 2.94873C158.904 3.17071 158.71 3.34718 158.477 3.45348C157.943 3.63164 157.38 3.70748 156.818 3.67703C156.325 3.67394 155.835 3.61334 155.356 3.49647C154.746 3.31591 154.436 2.98057 154.436 2.48187C154.436 1.98317 154.694 1.8198 155.21 1.8198C155.375 1.82085 155.537 1.86217 155.683 1.94018C155.755 1.97563 155.816 2.0307 155.859 2.09911C155.901 2.16753 155.924 2.24653 155.923 2.3271C155.923 2.51626 155.838 2.61944 155.666 2.61944C155.612 2.61237 155.562 2.59163 155.519 2.55925L155.408 2.49907C155.408 2.49907 155.356 2.49907 155.356 2.57645C155.356 2.8172 155.889 2.93758 156.947 2.93758C158.004 2.93758 158.426 2.73982 158.426 2.3443C158.425 2.20616 158.383 2.07133 158.305 1.95737C158.236 1.86697 158.192 1.76037 158.176 1.64783C158.176 1.42428 158.348 1.3125 158.684 1.3125C159.019 1.3125 159.285 1.60484 159.285 2.17233L159.191 2.21532ZM169.397 4.97538L168.701 5.92979C168.437 5.73289 168.118 5.62453 167.789 5.62025C167.656 5.62025 167.524 5.65133 167.405 5.71103C167.285 5.77072 167.181 5.8574 167.101 5.96418V6.02437C167.223 5.99734 167.347 5.98294 167.471 5.98138C167.689 5.97425 167.906 6.02466 168.099 6.12755C168.201 6.17241 168.287 6.24581 168.348 6.33889C168.409 6.43197 168.442 6.54074 168.443 6.65205V10.1516C168.438 10.3517 168.383 10.5476 168.284 10.7217C168.185 10.8957 168.045 11.0425 167.875 11.149C167.557 11.3876 167.172 11.52 166.775 11.5273H162.475C162.09 11.5247 161.714 11.4113 161.392 11.2006C161.226 11.1096 161.086 10.977 160.986 10.8157C160.887 10.6544 160.831 10.4699 160.825 10.2805V7.07337C160.825 6.86701 160.687 6.76383 160.429 6.76383C160.372 6.75481 160.314 6.75481 160.257 6.76383H160.085C160.033 6.76383 159.982 6.72083 159.947 6.64345L159.604 5.92979L161.659 4.21013H161.839L162.802 4.69163C162.861 4.71991 162.926 4.7346 162.991 4.73463C163.06 4.74291 163.129 4.74291 163.198 4.73463L163.318 4.94099L162.622 5.8954C162.358 5.69955 162.039 5.5913 161.71 5.58586C161.576 5.58834 161.444 5.62046 161.323 5.67992C161.203 5.73937 161.097 5.8247 161.014 5.92979V5.98998C161.136 5.96676 161.259 5.9524 161.383 5.94699C161.603 5.94592 161.82 6.00223 162.011 6.11036C162.111 6.15772 162.196 6.23173 162.257 6.32426C162.317 6.41679 162.351 6.52426 162.355 6.63485V9.36051C162.351 9.47888 162.378 9.59627 162.432 9.70158C162.486 9.8069 162.566 9.89667 162.665 9.9624C162.858 10.0982 163.09 10.1676 163.327 10.1602H166.104C166.603 10.1602 166.852 9.90221 166.852 9.37771V7.07337C166.852 6.86701 166.723 6.76383 166.456 6.76383C166.399 6.75547 166.341 6.75547 166.284 6.76383H166.112C166.061 6.76383 166.009 6.72083 165.975 6.64345L165.64 5.92979L167.686 4.21013H167.875L168.83 4.69163C168.889 4.71991 168.953 4.7346 169.019 4.73463C169.087 4.74291 169.157 4.74291 169.225 4.73463L169.397 4.97538ZM169.32 2.72262L168.314 3.71143H168.245L166.886 2.8516L165.76 3.71143H165.459L164.135 2.8516L163.739 3.14394L164.109 3.49647L163.559 3.98657L162.57 3.07515L164.29 1.56185H164.522L165.949 2.49907L167.033 1.56185H167.265L168.572 2.47327C168.625 2.50825 168.688 2.52622 168.752 2.52486C168.827 2.52101 168.901 2.50045 168.967 2.46467L169.32 2.72262ZM178.872 11.5187H176.903L175.502 10.3751L174.04 11.5273H172.071V9.40351C172.076 9.37298 172.075 9.34178 172.067 9.31175C172.06 9.28172 172.047 9.25347 172.028 9.22864C172.01 9.20381 171.987 9.18291 171.96 9.16717C171.933 9.15142 171.904 9.14115 171.873 9.13696H171.805C171.598 9.13696 171.495 9.24874 171.495 9.48949C171.495 9.58407 171.572 9.70445 171.727 9.85922C171.795 9.91423 171.851 9.98205 171.892 10.0588C171.933 10.1355 171.959 10.2196 171.968 10.3063C171.968 10.719 171.736 10.9254 171.289 10.9254C170.715 10.9254 170.429 10.5729 170.429 9.86781C170.429 8.87901 171.014 8.38891 172.148 8.38891H172.879C173.378 8.38891 173.627 8.64686 173.627 9.17135V10.5041L175.493 9.03378L177.368 10.5041V8.09656C177.368 7.45169 176.568 7.12495 174.96 7.12495H174.341C172.621 7.12495 171.762 6.55747 171.762 5.40529V4.98398C171.762 4.855 171.641 4.72603 171.418 4.61425C171.194 4.50247 171.074 4.3735 171.074 4.18433C171.07 4.0988 171.087 4.01369 171.123 3.93597C171.159 3.85826 171.213 3.79014 171.28 3.73722C171.451 3.61083 171.661 3.54708 171.873 3.55666C172.203 3.55751 172.525 3.65301 172.802 3.8318C172.962 3.93279 173.093 4.07236 173.185 4.23764C173.277 4.40293 173.325 4.58862 173.326 4.77762V5.27632C173.326 5.61165 173.653 5.78362 174.307 5.78362C174.96 5.78362 175.528 5.78362 176.138 5.85241C176.134 5.77795 176.134 5.70331 176.138 5.62885C176.137 5.44674 176.172 5.26621 176.241 5.09774C176.31 4.92927 176.412 4.77621 176.541 4.64744C176.67 4.51866 176.823 4.41674 176.991 4.34757C177.16 4.27841 177.34 4.24338 177.522 4.24452C177.706 4.24005 177.889 4.27363 178.059 4.34318C178.229 4.41273 178.383 4.51673 178.511 4.64864C178.641 4.7763 178.744 4.92895 178.814 5.09741C178.883 5.26587 178.918 5.44665 178.915 5.62885C178.919 5.81325 178.884 5.99635 178.813 6.16655C178.742 6.33676 178.636 6.49037 178.503 6.61765C178.636 6.74526 178.741 6.89893 178.812 7.06906C178.883 7.23919 178.918 7.42213 178.915 7.60646L178.872 11.5187ZM177.918 5.64605C177.919 5.58966 177.908 5.53376 177.885 5.48193C177.863 5.4301 177.83 5.38349 177.789 5.34511C177.749 5.30314 177.701 5.26998 177.648 5.24776C177.595 5.22555 177.537 5.21477 177.479 5.21613C177.366 5.21833 177.258 5.26433 177.178 5.34449C177.098 5.42464 177.052 5.53271 177.05 5.64605C177.048 5.70379 177.059 5.76118 177.081 5.81451C177.103 5.86783 177.137 5.91589 177.178 5.95559C177.217 5.99577 177.264 6.02727 177.316 6.04802C177.368 6.06876 177.424 6.07829 177.479 6.07596C177.537 6.07897 177.594 6.06979 177.647 6.04904C177.701 6.02829 177.749 5.99643 177.789 5.95559C177.844 5.92276 177.89 5.87773 177.924 5.82403C177.958 5.77033 177.98 5.70941 177.987 5.64605H177.918ZM194.255 4.97538L193.558 5.92979C193.294 5.73496 192.975 5.62683 192.647 5.62025C192.513 5.62273 192.381 5.65485 192.26 5.71431C192.14 5.77377 192.034 5.85909 191.95 5.96418V6.02437C192.072 5.99671 192.196 5.98229 192.32 5.98138C192.536 5.97329 192.75 6.0238 192.939 6.12755C193.042 6.17201 193.13 6.24508 193.192 6.33807C193.255 6.43105 193.289 6.54004 193.292 6.65205V10.1516C193.284 10.352 193.227 10.5476 193.127 10.7213C193.026 10.8951 192.885 11.0418 192.716 11.149C192.399 11.39 192.013 11.52 191.615 11.5187H187.316C186.931 11.5233 186.554 11.4124 186.233 11.2006C186.064 11.1114 185.922 10.9794 185.821 10.8179C185.72 10.6564 185.663 10.471 185.656 10.2805V7.07337C185.656 6.86701 185.527 6.76383 185.27 6.76383C185.213 6.75481 185.155 6.75481 185.098 6.76383H184.926C184.865 6.76383 184.822 6.72083 184.788 6.64345L184.444 5.92979L186.499 4.21013H186.68L187.634 4.69163C187.694 4.718 187.758 4.7326 187.823 4.73463C187.892 4.74291 187.961 4.74291 188.03 4.73463L188.159 4.94099L187.462 5.8954C187.198 5.70057 186.879 5.59244 186.551 5.58586C186.416 5.58451 186.282 5.61495 186.161 5.6747C186.04 5.73444 185.935 5.82183 185.854 5.92979V5.98998C185.976 5.96676 186.1 5.9524 186.224 5.94699C186.441 5.94498 186.655 6.00141 186.843 6.11036C186.944 6.15608 187.03 6.2297 187.091 6.32258C187.152 6.41547 187.185 6.52379 187.187 6.63485V7.63225H191.692V7.03897C191.692 6.83261 191.555 6.72943 191.297 6.72943C191.24 6.72042 191.182 6.72042 191.125 6.72943H190.953C190.893 6.72943 190.85 6.68644 190.815 6.60906L190.471 5.8954L192.526 4.17574H192.707L193.661 4.65724C193.721 4.68361 193.785 4.6982 193.851 4.70023C193.919 4.70852 193.988 4.70852 194.057 4.70023L194.255 4.97538ZM191.753 9.4121V8.86181H187.342V9.39491C187.34 9.51379 187.369 9.63112 187.424 9.73623C187.48 9.84134 187.561 9.9309 187.66 9.99679C187.852 10.135 188.085 10.2046 188.322 10.1946H191.099C191.598 10.1946 191.839 9.9366 191.839 9.4121H191.753ZM194.943 13.1094V11.4929H197.092V13.1094H194.943ZM207.204 5.3709L206.344 6.54027H206.086L204.306 5.59446L202.853 6.54027H202.415L200.342 5.59446L199.663 5.98998V6.17054L201.52 6.91H204.727C205.139 6.90249 205.545 7.00331 205.905 7.20234C206.087 7.29085 206.239 7.42935 206.344 7.60151C206.449 7.77366 206.503 7.97228 206.499 8.17395V11.5015H204.942V9.05097C204.946 8.92652 204.915 8.8035 204.853 8.69568C204.791 8.58786 204.7 8.4995 204.59 8.4405C204.374 8.31272 204.127 8.25001 203.876 8.25993H201.434C201.192 8.2594 200.956 8.33127 200.755 8.46629C200.656 8.53218 200.575 8.62174 200.52 8.72685C200.464 8.83196 200.436 8.94929 200.437 9.06817V11.5273H198.872V8.18255C198.86 7.95948 198.918 7.73821 199.038 7.54998C199.159 7.36176 199.335 7.21609 199.543 7.13355L198.21 6.66065V5.80082L200.712 4.27892H201.142L203.111 5.30211L204.641 4.27892H205.037L206.439 5.04416C206.535 5.06566 206.635 5.06566 206.731 5.04416C206.845 5.04387 206.958 5.02648 207.066 4.99257L207.204 5.3709Z" fill="black"/>
<path d="M57.4728 22.5159C57.4707 22.8086 57.4213 23.0989 57.3266 23.3758C57.2353 23.6363 57.0886 23.8739 56.8967 24.0722C56.7827 24.1919 56.6558 24.2986 56.5183 24.3904C56.3814 24.4935 56.231 24.5774 56.0712 24.6397C55.8974 24.7146 55.7157 24.7694 55.5295 24.8031C55.3175 24.8468 55.1012 24.867 54.8847 24.8633H54.0248V27.0301H52.3052V20.418H54.8847C55.2206 20.4103 55.5561 20.4479 55.8821 20.5297C56.1546 20.592 56.4138 20.7027 56.6473 20.8565C56.8965 21.0225 57.0981 21.2507 57.232 21.5185C57.3882 21.828 57.4706 22.1693 57.4728 22.5159ZM55.7531 22.5159C55.7494 22.3571 55.7018 22.2023 55.6155 22.0688C55.5377 21.9455 55.4235 21.8494 55.2888 21.7937C55.1449 21.7278 54.9907 21.6871 54.8331 21.6733H54.2398H53.999V23.6595H54.5665C54.6896 23.6696 54.8132 23.6696 54.9363 23.6595C55.034 23.6427 55.1294 23.6139 55.22 23.5735C55.306 23.5401 55.3848 23.4905 55.4522 23.4274C55.5565 23.3334 55.6362 23.2153 55.6843 23.0834C55.7371 22.911 55.7575 22.7302 55.7445 22.5503L55.7531 22.5159Z" fill="black"/>
<path d="M57.6538 27.0474L59.9152 20.4181H61.7466L64.008 27.0474H62.2883L61.867 25.6889H59.7518L59.3391 27.0474H57.6538ZM61.4887 24.4679L60.775 22.3097L60.0871 24.4937L61.4887 24.4679Z" fill="black"/>
<path d="M70.405 27.0474H68.7885L66.209 22.4301V27.0474H64.6699V20.4181H66.7335L68.8659 24.2185V20.4181H70.405V27.0474Z" fill="black"/>
<path d="M77.7395 23.737C77.7492 24.3168 77.6069 24.8889 77.3268 25.3965C77.0864 25.8552 76.7308 26.2433 76.295 26.5229C75.9508 26.7438 75.5642 26.8902 75.16 26.9528C74.7273 27.0164 74.2904 27.0481 73.8531 27.0474H71.7637V20.4181H73.8359C74.279 20.4175 74.7215 20.4491 75.16 20.5127C75.5708 20.5703 75.964 20.717 76.3122 20.9426C76.7556 21.2183 77.1177 21.607 77.3612 22.069C77.622 22.5856 77.7519 23.1584 77.7395 23.737ZM76.0198 23.737C76.0296 23.3524 75.9532 22.9705 75.7963 22.6193C75.6425 22.3115 75.3999 22.0569 75.0998 21.8884C74.8759 21.7705 74.63 21.7002 74.3776 21.6821H73.5177V25.8264C73.8961 25.8264 74.2142 25.8264 74.4721 25.8264C74.735 25.8097 74.9893 25.7269 75.2116 25.5857C75.4843 25.416 75.7023 25.1712 75.8393 24.8806C75.9837 24.5147 76.0425 24.1206 76.0112 23.7284L76.0198 23.737Z" fill="black"/>
<path d="M78.0142 27.0474L80.2755 20.4181H82.1069L84.3683 27.0474H82.6486L82.2273 25.6889H80.1207L79.6908 27.0474H78.0142ZM81.849 24.4679L81.1697 22.2839L80.4819 24.4679H81.849Z" fill="black"/>
<path d="M90.6105 27.1763C90.1745 27.2034 89.7376 27.141 89.3265 26.9932C88.9155 26.8453 88.539 26.6151 88.2201 26.3165C87.9115 25.9659 87.6764 25.557 87.5288 25.1139C87.3811 24.6708 87.3238 24.2026 87.3603 23.737C87.3062 22.8197 87.615 21.9179 88.2201 21.2263C88.53 20.9104 88.9031 20.6636 89.3151 20.5021C89.727 20.3406 90.1685 20.268 90.6105 20.2891C90.8493 20.2869 91.088 20.3042 91.3241 20.3407C91.533 20.3667 91.7398 20.407 91.9432 20.4611C92.1128 20.5115 92.2793 20.5718 92.4419 20.6416L92.8718 20.848V22.4129H92.6998L92.3989 22.1549C92.264 22.0524 92.1233 21.9577 91.9776 21.8712C91.8144 21.7711 91.6415 21.6875 91.4617 21.6218C91.269 21.5669 91.0686 21.5437 90.8684 21.5531C90.6427 21.5488 90.4182 21.5867 90.2063 21.6648C89.9851 21.7527 89.7856 21.8877 89.6217 22.0604C89.4396 22.255 89.3017 22.4867 89.2175 22.7396C88.9994 23.4102 88.9994 24.1326 89.2175 24.8032C89.3142 25.058 89.4637 25.2895 89.656 25.4825C89.8217 25.6428 90.0217 25.7633 90.2407 25.835C90.4446 25.9095 90.66 25.9473 90.877 25.9468C91.0934 25.9482 91.3085 25.9133 91.5133 25.8436C91.6893 25.7788 91.8591 25.6982 92.0206 25.6029C92.1581 25.5165 92.2902 25.4218 92.4161 25.3191C92.5279 25.2245 92.6311 25.1385 92.7084 25.0612H92.8632V26.6175L92.4419 26.8152C92.28 26.8867 92.1134 26.9471 91.9432 26.9958C91.7486 27.0567 91.5505 27.1055 91.3499 27.142C91.1049 27.1747 90.8575 27.1862 90.6105 27.1763Z" fill="black"/>
<path d="M99.9656 23.7369C100.017 24.659 99.7087 25.5652 99.1058 26.2648C98.7974 26.5767 98.4265 26.8199 98.0175 26.9784C97.6086 27.137 97.1707 27.2073 96.7326 27.1848C96.2845 27.2161 95.8349 27.1483 95.4158 26.9864C94.9968 26.8244 94.6185 26.5722 94.3079 26.2476C93.706 25.5542 93.3976 24.6537 93.4481 23.7369C93.3958 22.8146 93.7042 21.9081 94.3079 21.209C94.9557 20.612 95.8044 20.2805 96.6853 20.2805C97.5663 20.2805 98.415 20.612 99.0628 21.209C99.6845 21.9001 100.009 22.8083 99.9656 23.7369ZM98.2459 23.7369C98.2515 23.3976 98.211 23.0592 98.1256 22.7309C98.0561 22.4859 97.9425 22.2557 97.7902 22.0516C97.664 21.8829 97.4988 21.7472 97.3087 21.6561C97.1292 21.5802 96.9361 21.5422 96.7412 21.5443C96.5499 21.5411 96.3599 21.5762 96.1823 21.6475C95.9904 21.7394 95.8226 21.8748 95.6922 22.043C95.5383 22.246 95.4245 22.4766 95.3569 22.7223C95.2646 23.0553 95.2212 23.4 95.2279 23.7455C95.2201 24.0882 95.2636 24.4302 95.3569 24.7601C95.4236 25.0018 95.5344 25.2292 95.6836 25.4307C95.8126 25.6003 95.9808 25.736 96.1737 25.8263C96.3532 25.9021 96.5464 25.9401 96.7412 25.938C96.9393 25.9362 97.1351 25.8953 97.3173 25.8177C97.5089 25.729 97.6747 25.5929 97.7988 25.4221C97.9493 25.217 98.0628 24.9871 98.1342 24.7429C98.2147 24.411 98.2465 24.0693 98.2287 23.7283L98.2459 23.7369Z" fill="black"/>
<path d="M107.79 27.0474H106.122V22.6536L104.901 25.4911H103.766L102.545 22.6536V27.0474H100.963V20.4181H102.907L104.386 23.694L105.864 20.4181H107.799L107.79 27.0474Z" fill="black"/>
<path d="M116.009 27.0474H114.341V22.6536L113.12 25.4911H111.977L110.756 22.6536V27.0474H109.174V20.4181H111.117L112.596 23.694L114.083 20.4181H116.018L116.009 27.0474Z" fill="black"/>
<path d="M117.394 27.0474V20.4181H121.916V21.682H119.07V22.8428H121.65V24.1326H119.07V25.8522H121.916V27.1162L117.394 27.0474Z" fill="black"/>
<path d="M129.243 27.0473H127.196L125.33 24.6139H124.729V27.0473H123.061V20.418H125.752C126.077 20.416 126.402 20.439 126.723 20.4867C126.992 20.5349 127.249 20.6341 127.48 20.7791C127.715 20.9222 127.913 21.1198 128.056 21.3552C128.199 21.6189 128.27 21.9153 128.263 22.215C128.284 22.6539 128.163 23.0881 127.919 23.4532C127.677 23.7733 127.361 24.0301 126.999 24.2012L129.243 27.0473ZM126.543 22.4128C126.547 22.2629 126.511 22.1147 126.44 21.9829C126.37 21.8559 126.257 21.7582 126.122 21.7077C126.008 21.664 125.89 21.6351 125.769 21.6217H125.288H124.729V23.4102H125.21C125.408 23.4256 125.606 23.4256 125.803 23.4102C125.955 23.3802 126.099 23.3187 126.225 23.2296C126.326 23.1476 126.408 23.045 126.465 22.9287C126.532 22.7652 126.558 22.5884 126.543 22.4128Z" fill="black"/>
<path d="M132.621 27.1763C132.185 27.2034 131.748 27.141 131.337 26.9932C130.926 26.8453 130.55 26.6151 130.231 26.3165C129.922 25.9659 129.687 25.557 129.539 25.1139C129.392 24.6708 129.335 24.2026 129.371 23.737C129.317 22.8197 129.626 21.9179 130.231 21.2263C130.541 20.9104 130.914 20.6636 131.326 20.5021C131.738 20.3406 132.179 20.268 132.621 20.2891C132.86 20.2869 133.099 20.3042 133.335 20.3407C133.544 20.3667 133.751 20.407 133.954 20.4611C134.124 20.5115 134.29 20.5718 134.453 20.6416L134.883 20.848V22.4129H134.719L134.418 22.1549C134.283 22.0524 134.143 21.9577 133.997 21.8712C133.834 21.7711 133.661 21.6875 133.481 21.6218C133.292 21.5591 133.095 21.5272 132.896 21.5273C132.671 21.523 132.446 21.5609 132.234 21.639C132.013 21.7269 131.814 21.8619 131.65 22.0346C131.467 22.2292 131.33 22.4609 131.245 22.7138C131.129 23.042 131.073 23.3888 131.082 23.737C131.076 24.0907 131.131 24.4428 131.245 24.7774C131.342 25.0322 131.492 25.2637 131.684 25.4567C131.85 25.617 132.05 25.7375 132.269 25.8092C132.473 25.883 132.688 25.9208 132.905 25.921C133.121 25.9224 133.336 25.8875 133.541 25.8178C133.717 25.753 133.887 25.6724 134.049 25.5771C134.186 25.4907 134.318 25.396 134.444 25.2933L134.745 25.0354H134.891V26.5917L134.47 26.7894C134.308 26.8609 134.141 26.9213 133.971 26.97C133.777 27.0309 133.578 27.0797 133.378 27.1162C133.128 27.1585 132.875 27.1786 132.621 27.1763Z" fill="black"/>
<path d="M139.216 27.0474H135.579V25.8522H136.542V21.5531H135.579V20.4181H139.182V21.5531H138.219V25.8522H139.182L139.216 27.0474Z" fill="black"/>
<path d="M139.612 27.0474L141.873 20.4181H143.705L145.966 27.0474H144.246L143.825 25.6889H141.727L141.306 27.0474H139.612ZM143.447 24.4679L142.767 22.2839L142.08 24.4679H143.447Z" fill="black"/>
<path d="M151.099 27.0474H146.627V20.4181H148.347V25.7834H151.133L151.099 27.0474Z" fill="black"/>
<path d="M159.947 24.9924C159.953 25.2899 159.889 25.5847 159.758 25.8522C159.638 26.0943 159.465 26.3059 159.251 26.4713C158.996 26.6667 158.703 26.8072 158.391 26.884C158.014 26.9783 157.627 27.0217 157.239 27.013H154.556V20.4181H156.921C157.294 20.4136 157.668 20.4337 158.038 20.4783C158.302 20.5003 158.559 20.5733 158.795 20.6932C159.02 20.8084 159.207 20.9841 159.337 21.2005C159.453 21.4295 159.512 21.6832 159.509 21.94C159.513 22.2438 159.43 22.5425 159.268 22.7998C159.107 23.0514 158.868 23.2443 158.589 23.3501V23.3931C158.968 23.4593 159.317 23.6428 159.586 23.9176C159.839 24.2169 159.968 24.6012 159.947 24.9924ZM157.798 22.2667C157.792 22.153 157.763 22.0416 157.712 21.94C157.655 21.8308 157.565 21.7431 157.454 21.6906C157.327 21.6443 157.193 21.6182 157.058 21.6133H156.267V23.0148H157.075C157.197 23.0025 157.316 22.9705 157.428 22.9202C157.548 22.8674 157.648 22.7769 157.712 22.6622C157.766 22.5464 157.795 22.4204 157.798 22.2925V22.2667ZM158.219 24.958C158.228 24.7878 158.183 24.6191 158.09 24.4765C157.992 24.3547 157.861 24.2649 157.712 24.2185C157.576 24.1725 157.434 24.1493 157.29 24.1498H156.267V25.8522H157.265C157.443 25.8475 157.618 25.8065 157.781 25.7318C157.92 25.679 158.035 25.5784 158.107 25.4481C158.189 25.3108 158.228 25.152 158.219 24.9924V24.958Z" fill="black"/>
<path d="M160.188 27.0474L162.449 20.4181H164.28L166.533 27.0474H164.813L164.392 25.6889H162.294L161.873 27.0474H160.188ZM164.031 24.4679L163.343 22.2839L162.664 24.4679H164.031Z" fill="black"/>
<path d="M172.94 27.0474H171.323L168.744 22.4301V27.0474H167.213V20.4181H169.268L171.409 24.2185V20.4181H172.94V27.0474Z" fill="black"/>
<path d="M180.162 27.0474H178.133L176.31 24.3561L175.983 24.8032V27.0474H174.264V20.4181H175.983V23.3587L178.116 20.4181H180.068L177.712 23.4963L180.162 27.0474Z" fill="black"/>
<path d="M188.554 22.5159C188.552 22.8086 188.503 23.0989 188.408 23.3758C188.317 23.6363 188.17 23.8739 187.978 24.0722C187.864 24.1919 187.737 24.2986 187.6 24.3904C187.463 24.4935 187.313 24.5774 187.153 24.6397C186.979 24.7146 186.797 24.7694 186.611 24.8031C186.399 24.8468 186.183 24.867 185.966 24.8633H185.106V27.0301H183.387V20.418H185.966C186.302 20.4103 186.638 20.4479 186.964 20.5297C187.237 20.5904 187.496 20.7012 187.729 20.8565C187.978 21.0225 188.18 21.2507 188.314 21.5185C188.47 21.828 188.552 22.1693 188.554 22.5159ZM186.835 22.5159C186.84 22.3462 186.795 22.1787 186.706 22.0344C186.628 21.9111 186.514 21.815 186.379 21.7593C186.235 21.6924 186.081 21.6516 185.923 21.6389H185.33H185.098V23.6251H185.657C185.78 23.6352 185.903 23.6352 186.026 23.6251C186.124 23.6083 186.219 23.5795 186.31 23.5391C186.396 23.5057 186.475 23.4561 186.542 23.393C186.65 23.3019 186.73 23.1829 186.774 23.049C186.82 22.887 186.838 22.7183 186.826 22.5503L186.835 22.5159Z" fill="black"/>
<path d="M193.919 27.0474H189.456V20.4181H191.176V25.7834H193.962L193.919 27.0474Z" fill="black"/>
<path d="M197.607 27.1762C197.171 27.2048 196.734 27.1432 196.322 26.9953C195.911 26.8473 195.535 26.6162 195.217 26.3164C194.906 25.9675 194.669 25.5588 194.521 25.1152C194.373 24.6717 194.318 24.2028 194.357 23.7369C194.303 22.8196 194.612 21.9178 195.217 21.2262C195.527 20.9112 195.901 20.665 196.312 20.5035C196.724 20.3421 197.165 20.269 197.607 20.289C197.849 20.2872 198.09 20.3044 198.329 20.3406C198.535 20.3674 198.739 20.4077 198.94 20.461C199.11 20.51 199.277 20.5703 199.439 20.6415L199.877 20.8479V22.4128H199.705L199.396 22.1548C199.264 22.0523 199.126 21.9576 198.983 21.8711C198.818 21.7743 198.645 21.6909 198.467 21.6217C198.275 21.5597 198.075 21.5277 197.874 21.5272C197.648 21.5229 197.423 21.5608 197.212 21.6389C196.992 21.7249 196.795 21.8602 196.636 22.0345C196.447 22.2255 196.306 22.4582 196.223 22.7137C196.11 23.0429 196.055 23.389 196.059 23.7369C196.051 24.0914 196.109 24.4444 196.231 24.7773C196.325 25.0316 196.472 25.2631 196.661 25.4566C196.828 25.615 197.028 25.7353 197.246 25.8091C197.453 25.8837 197.671 25.9216 197.891 25.9209C198.104 25.9215 198.317 25.8867 198.519 25.8177C198.695 25.7546 198.865 25.6739 199.026 25.577C199.165 25.4927 199.297 25.3979 199.421 25.2932L199.722 25.0353H199.877V26.5916L199.447 26.7893C199.286 26.8623 199.119 26.9226 198.949 26.9699C198.754 27.0318 198.556 27.0806 198.355 27.1161C198.108 27.1583 197.858 27.1785 197.607 27.1762Z" fill="black"/>
<path d="M202.405 27.0473H200.814V25.3276H202.405V27.0473Z" fill="black"/>
</svg>
