<svg width="114" height="36" viewBox="0 0 114 36" fill="none" xmlns="http://www.w3.org/2000/svg">
<path d="M17.5281 33.847C15.5944 33.5464 13.7095 33.0427 11.9627 32.2546C10.1266 31.4259 8.44478 30.2884 7.07985 28.8341C5.71492 27.3879 4.65059 25.6574 3.94375 23.7725C3.23691 21.8876 2.86318 19.8646 2.81443 17.8416C2.76568 15.8267 3.03379 13.7955 3.67564 11.8781C4.00062 10.9194 4.40685 9.99323 4.9187 9.11578C5.42243 8.23832 6.02365 7.40961 6.68987 6.63778C7.35609 5.86594 8.10355 5.15098 8.89976 4.49289C9.69598 3.8348 10.5491 3.23358 11.4509 2.70548C11.8977 2.43737 12.3608 2.19364 12.8321 1.9499C12.9458 1.8849 13.0677 1.83615 13.1814 1.77116C13.2952 1.71429 13.417 1.64929 13.5389 1.59242C13.7745 1.47867 14.0183 1.36493 14.2539 1.25118C14.7332 1.03182 15.2207 0.820582 15.7163 0.609343C16.2119 0.406229 16.7075 0.211239 17.2112 0.00812445V0C15.0663 0.243737 12.9377 0.820582 10.9634 1.77116C9.97221 2.24238 9.00538 2.77861 8.0873 3.41232C7.17735 4.04604 6.31614 4.76913 5.53617 5.57346C3.97625 7.18213 2.74943 9.13202 1.92072 11.2363C1.09201 13.3487 0.685782 15.6236 0.726405 17.8822C0.767028 20.1327 1.15701 22.3832 1.9451 24.52C2.73318 26.6486 3.9275 28.6554 5.50368 30.3209C6.29176 31.1578 7.16922 31.9052 8.10355 32.5552C9.03788 33.2051 10.0372 33.7657 11.0772 34.2288C12.109 34.6919 13.1814 35.0575 14.262 35.35C14.8064 35.4963 15.3507 35.6181 15.8951 35.7238C16.4394 35.8294 16.9838 35.9106 17.52 35.9837V33.847H17.5281Z" fill="#E10009"/>
<path d="M19.8192 2.13676C27.3589 2.20176 34.5898 9.67637 34.5085 18.2072C34.4354 25.6818 28.5776 32.5064 20.128 36C41.5607 33.7414 42.4706 2.77048 19.8192 0C19.8192 0.641842 19.803 1.3893 19.8192 2.13676Z" fill="#E10009"/>
<path d="M24.2777 28.6548V24.7735H24.062C24.0333 26.4698 23.2139 27.6485 21.6039 28.3098V27.1885C22.1502 26.5848 22.4664 25.7798 22.5527 24.7735H21.4745V23.566H24.2777V22.9623H22.1214V19.081H28.2883V21.3235C28.317 22.4448 27.7852 22.991 26.6927 22.9623H26.0889V23.566H28.8489V24.7735H27.8139C27.8427 25.7223 28.1589 26.5273 28.7627 27.1885V28.3098C27.1527 27.6773 26.3189 26.4985 26.2614 24.7735H26.0889V28.6548H24.2777ZM19.6202 28.6548V22.876C19.3614 22.9623 19.0883 23.0485 18.8008 23.1348V22.0566C19.577 21.4816 20.0802 20.4035 20.3102 18.8223H22.0352C21.8627 19.8573 21.6327 20.6766 21.3452 21.2804V28.6548H19.6202ZM23.8464 20.2885V21.7548H26.0889C26.4339 21.7548 26.592 21.5679 26.5633 21.1941V20.2885H23.8464Z" fill="#E10009"/>
<path d="M11.5992 26.0673V19.2104H17.4642V24.2991C17.5217 25.5354 16.9754 26.1248 15.8254 26.0673H11.5992ZM8.8392 18.8223H10.4779V19.9866H11.2973V21.1941H10.4779V23.0485C10.5642 23.0198 10.7079 22.9766 10.9092 22.9191C11.0817 22.8904 11.2111 22.8616 11.2973 22.8329V24.0404C11.2398 24.0691 11.1248 24.1123 10.9523 24.1698C10.7511 24.256 10.5929 24.3135 10.4779 24.3423V27.3179C10.5067 28.2379 10.0323 28.6835 9.05482 28.6548H8.01982V27.5766H8.53732C8.76732 27.6054 8.86795 27.476 8.8392 27.1885V24.8166C8.69545 24.8454 8.46545 24.9029 8.1492 24.9891C8.00545 25.0179 7.89045 25.0466 7.8042 25.0754V23.566C8.1492 23.4798 8.4942 23.4223 8.8392 23.3935V21.1941H7.84732V19.9866H8.8392V18.8223ZM17.8523 27.2316V28.3529H11.0386V27.2316H17.8523ZM15.2648 24.8166C15.6098 24.8454 15.7823 24.6585 15.7823 24.256V23.221H13.2811V24.8166H15.2648ZM15.7823 20.4179H13.2811V22.0135H15.7823V20.4179Z" fill="#E10009"/>
<path d="M19.146 15.8354V7.38293H22.8547V14.3261C22.9122 15.4186 22.4379 15.9217 21.4316 15.8354H19.146ZM28.8491 15.0592V16.2236H23.0704V15.0592H24.9247V12.2129H23.3291V11.0054H24.9247V8.63356H23.1997V7.42606H28.6766V8.63356H26.8222V11.0054H28.5041V12.2129H26.8222V15.0592H28.8491ZM21.4316 14.3261V12.0404H20.6554V14.7573H21.0004C21.3166 14.7861 21.4604 14.6423 21.4316 14.3261ZM20.6554 8.54731V10.8761H21.4316V8.54731H20.6554Z" fill="#E10009"/>
<path d="M7.71777 9.32352V8.11602H8.23527V6.82227H9.74465V8.11602H10.5209V6.82227H12.0303V8.11602H12.4615V9.32352H12.0303V11.3073C12.0303 12.6585 11.714 13.7654 11.0815 14.6279C11.4265 14.9441 11.8578 15.2316 12.3753 15.4904V16.6979C11.4553 16.3241 10.6934 15.9504 10.0896 15.5766C9.4859 15.9504 8.7384 16.3098 7.84715 16.6548V15.4904C8.36465 15.2316 8.7959 14.9441 9.1409 14.6279C8.53715 13.8229 8.23527 12.716 8.23527 11.3073V9.32352H7.71777ZM12.3321 12.256V11.0054H14.2728V9.92727C14.7328 9.58227 15.164 9.07914 15.5665 8.41789H12.634V7.16727H17.7228V8.41789C17.349 9.13664 16.8315 9.74039 16.1703 10.2291V11.0054H17.8953V12.256H16.1703V14.9298C16.2565 16.1085 15.6528 16.6691 14.359 16.6116H13.1084V15.4904H13.6259C14.0859 15.5191 14.3015 15.3179 14.2728 14.8866V12.256H12.3321ZM10.1328 13.4204C10.3915 12.8454 10.5209 12.1554 10.5209 11.3504V9.32352H9.74465V11.3504C9.74465 12.2416 9.87402 12.9316 10.1328 13.4204Z" fill="#E10009"/>
<path d="M50.4979 12.944V15.14C50.1559 17.93 49.7599 19.82 49.0219 21.404C49.7239 21.962 50.3539 22.538 50.8579 22.988L49.6159 25.04C49.0579 24.464 48.4639 23.888 47.8339 23.312C47.0599 24.302 46.0699 25.238 44.7019 26.336L43.0999 24.662C44.4499 23.708 45.4219 22.898 46.2139 21.89C45.4219 21.224 44.6659 20.63 43.9639 20.18C44.3779 18.668 44.7199 17.048 44.9899 15.248H43.8559V12.944H45.3139C45.4399 12.062 45.5119 11.162 45.6019 10.154L47.7439 10.316C47.6719 11.036 47.5639 11.936 47.4379 12.944H50.4979ZM59.4079 17.03V19.334H55.7359V23.924C55.7359 25.67 55.1599 25.994 53.3599 26.228L52.1899 26.372L51.4699 24.122L52.7119 23.978C53.4139 23.924 53.4499 23.78 53.4499 23.132V19.334H50.4619V17.03H53.4499V15.302L56.2219 13.124H51.0199V10.874H59.0479V13.106L55.7359 16.094V17.03H59.4079ZM46.2679 19.226C46.5559 19.424 46.9159 19.694 47.3299 20.018C47.8879 18.794 48.2299 17.282 48.4999 15.248H47.0779C46.8439 16.634 46.5739 18.056 46.2679 19.226ZM73.3106 23.366H77.0006V25.634H67.5506V23.366H71.0606V19.118H68.1626V16.868H71.0606V13.25H67.9826V10.982H76.4066V13.25H73.3106V16.868H76.0646V19.118H73.3106V23.366ZM61.8266 25.004V11.216H67.3886V25.004H61.8266ZM65.2646 13.394H63.9686V17.066H65.2646V13.394ZM63.9686 22.862H65.2646V19.244H63.9686V22.862ZM84.7114 17.696L84.9274 18.902L83.1634 19.478V23.942C83.1634 25.616 82.6234 26.012 80.9494 26.21L79.9054 26.318L79.2574 24.176L80.2834 24.05C80.9134 23.978 81.0214 23.852 81.0214 23.258V20.198C80.3194 20.432 79.7074 20.63 79.2214 20.828L78.7714 18.632C79.3294 18.47 80.1394 18.2 81.0214 17.912V15.302H79.3294V13.052H81.0214V10.172L83.1634 10.244V13.052H84.8194V15.302H83.1634V17.174L84.5494 16.67L84.7114 17.696ZM93.9094 10.856V21.872H85.2694V10.856H93.9094ZM91.7854 13.034H87.3754V15.266H91.7854V13.034ZM87.3754 19.604H91.7854V17.444H87.3754V19.604ZM84.1534 23.456H94.8634V25.814H84.1534V23.456ZM99.4421 10.298L101.566 10.874C101.224 12.116 100.9 13.178 100.522 14.186V26.246H98.4161V18.308L97.6061 19.478L96.0581 17.822C97.7681 15.446 98.9381 12.98 99.4421 10.298ZM111.988 20.162H108.154C109.378 21.584 110.854 22.628 112.87 23.582L111.61 25.436C109.738 24.212 108.622 23.24 107.74 22.16V26.066H105.616V22.16C104.554 23.384 103.312 24.446 101.674 25.382L100.522 23.51C102.574 22.502 103.78 21.656 104.986 20.162H101.386V18.164H105.616V16.922H102.088V10.712H111.232V16.922H107.74V18.164H111.988V20.162ZM104.338 12.8V14.834H109V12.8H104.338Z" fill="#E10009"/>
</svg>
