<svg width="120" height="36" viewBox="0 0 120 36" fill="none" xmlns="http://www.w3.org/2000/svg">
<path d="M14.3316 11.6924C15.067 10.429 14.1556 8.84387 12.6937 8.84387H6.75266C5.83136 8.84387 4.98307 9.34529 4.5389 10.1525L0.818915 16.9122C0.392274 17.6875 0.402299 18.6295 0.84539 19.3956L9.96303 35.1588C10.2648 35.6805 10.8223 36.0013 11.425 35.9999L27.2559 35.9646C29.2134 35.9603 30.4227 33.8279 29.4218 32.1458L21.2568 18.4228C21.0927 18.1471 20.693 18.1488 20.5312 18.4258L16.1005 26.0117C15.8362 26.4642 15.3516 26.7423 14.8277 26.7423H8.50117C7.20063 26.7423 6.39059 25.3312 7.04651 24.2082L14.3316 11.6924Z" fill="#F5222D"/>
<path d="M27.4384 24.3076C26.703 25.571 27.6144 27.1561 29.0763 27.1561H35.0174C35.9387 27.1561 36.787 26.6547 37.2311 25.8475L40.9511 19.0878C41.3777 18.3125 41.3677 17.3705 40.9246 16.6044L31.807 0.841156C31.5052 0.319462 30.9477 -0.00130272 30.345 5.91278e-05L14.5141 0.0353508C12.5567 0.0397205 11.3473 2.17205 12.3482 3.85422L20.5133 17.5772C20.6773 17.8529 21.077 17.8512 21.2388 17.5742L25.6696 9.98828C25.9338 9.53583 26.4184 9.25768 26.9423 9.25768H33.2688C34.5694 9.25768 35.3794 10.6688 34.7235 11.7918L27.4384 24.3076Z" fill="black"/>
<path d="M44.8179 28.9529L44.3584 30.9431L45.7166 32.1742H50.8124C53.2831 32.1742 54.7964 30.9705 55.3521 28.5631L55.6458 27.291C56.0942 25.3487 55.4821 24.1998 53.8095 23.8441L50.0845 23.1055C49.9255 23.0645 49.8665 22.955 49.9076 22.7772L50.2107 21.4641C50.2455 21.3137 50.34 21.2384 50.4944 21.2384H56.622L57.0815 19.2483L55.7233 18.0172H51.0486C48.5779 18.0172 47.0647 19.2209 46.5089 21.6283L46.2389 22.7977C45.7873 24.7537 46.401 25.8959 48.08 26.2241L51.7955 27.0038C51.9577 27.0311 52.0166 27.1406 51.9724 27.3321L51.6503 28.7272C51.6156 28.8777 51.521 28.9529 51.3666 28.9529H44.8179Z" fill="#F5222D"/>
<path fill-rule="evenodd" clip-rule="evenodd" d="M56.1145 32.1742L59.3829 18.0172H66.5423C69.013 18.0172 69.9704 19.2209 69.4146 21.6283L68.7704 24.4186C68.2178 26.8123 66.7062 28.0091 64.2355 28.0091H60.74L59.7784 32.1742H56.1145ZM61.4837 24.7879H64.7896C64.944 24.7879 65.0386 24.7127 65.0734 24.5622L65.7886 21.4641C65.8234 21.3137 65.7635 21.2384 65.6091 21.2384H62.3031L61.4837 24.7879Z" fill="#F5222D"/>
<path fill-rule="evenodd" clip-rule="evenodd" d="M70.796 21.6283L69.195 28.5631C68.6392 30.9705 69.5966 32.1742 72.0673 32.1742H76.7841C79.2548 32.1742 80.768 30.9705 81.3238 28.5631L82.9248 21.6283C83.4806 19.2209 82.5232 18.0172 80.0525 18.0172H75.3357C72.865 18.0172 71.3518 19.2209 70.796 21.6283ZM73.0005 28.9529C72.8461 28.9529 72.7863 28.8777 72.821 28.7272L74.4978 21.4641C74.5326 21.3137 74.6271 21.2384 74.7815 21.2384H79.1193C79.2737 21.2384 79.3335 21.3137 79.2988 21.4641L77.622 28.7272C77.5873 28.8777 77.4927 28.9529 77.3383 28.9529H73.0005Z" fill="#F5222D"/>
<path fill-rule="evenodd" clip-rule="evenodd" d="M82.5098 32.1742L85.7782 18.0172H92.9376C95.4082 18.0172 96.3657 19.2209 95.8099 21.6283L95.2604 24.0083C94.8752 25.677 94.033 26.7713 92.7338 27.291L93.9621 31.456L93.3752 32.1742H90.2166L88.8725 27.5988H87.23L86.1737 32.1742H82.5098ZM87.9737 24.3776H91.2796C91.4341 24.3776 91.5286 24.3023 91.5634 24.1519L92.1839 21.4641C92.2186 21.3137 92.1588 21.2384 92.0044 21.2384H88.6984L87.9737 24.3776Z" fill="#F5222D"/>
<path d="M97.3246 18.0172L96.5809 21.2384H100.792L98.2676 32.1742H101.932L104.456 21.2384H108.668L109.411 18.0172H97.3246Z" fill="#F5222D"/>
<path d="M107.351 28.9529L106.892 30.9431L108.25 32.1742H113.346C115.817 32.1742 117.33 30.9705 117.886 28.5631L118.179 27.291C118.628 25.3487 118.016 24.1998 116.343 23.8441L112.618 23.1055C112.459 23.0645 112.4 22.955 112.441 22.7772L112.744 21.4641C112.779 21.3137 112.873 21.2384 113.028 21.2384H119.155L119.615 19.2483L118.257 18.0172H113.582C111.111 18.0172 109.598 19.2209 109.042 21.6283L108.772 22.7977C108.321 24.7537 108.934 25.8959 110.613 26.2241L114.329 27.0038C114.491 27.0311 114.55 27.1406 114.506 27.3321L114.184 28.7272C114.149 28.8777 114.054 28.9529 113.9 28.9529H107.351Z" fill="#F5222D"/>
<path d="M68.958 3.36084L68.5884 4.9616H70.1264L70.496 3.36084H68.958Z" fill="black"/>
<path d="M68.2769 6.61345L66.2325 15.4687H67.6307L69.6751 6.61345H68.2769Z" fill="black"/>
<path fill-rule="evenodd" clip-rule="evenodd" d="M70.8811 12.9143L71.746 9.16785C72.1392 7.46491 73.2096 6.61344 74.9574 6.61344H77.4042C79.1519 6.61344 79.8292 7.46491 79.436 9.16785L78.5711 12.9143C78.178 14.6172 77.1075 15.4687 75.3598 15.4687H72.913C71.1652 15.4687 70.4879 14.6172 70.8811 12.9143ZM72.24 13.0846C72.0565 13.8793 72.3726 14.2767 73.1882 14.2767H75.635C76.4506 14.2767 76.9501 13.8793 77.1336 13.0846L78.0772 8.99755C78.2607 8.20285 77.9446 7.8055 77.129 7.8055H74.6821C73.8665 7.8055 73.367 8.20285 73.1835 8.99755L72.24 13.0846Z" fill="black"/>
<path d="M82.6821 6.61344L80.6377 15.4687H82.0359L83.805 7.8055H87.3005C88.1161 7.8055 88.4322 8.20285 88.2487 8.99755L86.7547 15.4687H88.1529L89.6076 9.16785C90.0007 7.46491 89.3234 6.61344 87.5757 6.61344H82.6821Z" fill="black"/>
<path fill-rule="evenodd" clip-rule="evenodd" d="M92.1931 9.16785L91.3282 12.9143C90.935 14.6172 91.6123 15.4687 93.36 15.4687H97.205L98.0221 14.9578L98.1793 14.2767H93.6353C92.8196 14.2767 92.5036 13.8793 92.687 13.0846L93.0369 11.569H99.154L99.7084 9.16785C100.102 7.46491 99.4242 6.61344 97.6765 6.61344H95.4044C93.6567 6.61344 92.5863 7.46491 92.1931 9.16785ZM98.0114 10.4621H93.2925L93.6306 8.99755C93.8141 8.20285 94.3136 7.8055 95.1292 7.8055H97.4013C98.2169 7.8055 98.533 8.20285 98.3495 8.99755L98.0114 10.4621Z" fill="black"/>
<path d="M56.5117 12.9143L57.9664 6.61344H59.3646L57.8706 13.0846C57.6871 13.8793 58.0032 14.2767 58.8188 14.2767H62.3143L64.0835 6.61344H65.4817L63.4373 15.4687H58.5436C56.7959 15.4687 56.1186 14.6172 56.5117 12.9143Z" fill="black"/>
<path d="M46.642 3.71846L43.9292 15.4687H45.3973L46.6711 9.95121H52.8231L51.5493 15.4687H53.0174L55.7302 3.71846H54.2621L53.1219 8.65698H46.9699L48.1101 3.71846H46.642Z" fill="black"/>
</svg>
